<svg width="90" height="90" viewBox="0 0 90 90" fill="none" xmlns="http://www.w3.org/2000/svg">
<g clip-path="url(#clip0_109_106)">
<path d="M9.88705 12.3251L12.4877 10.1495C13.6941 9.14024 14.712 8.58747 15.5414 8.4912C16.3748 8.39158 17.1089 8.72128 17.7439 9.48029C18.1717 9.99162 18.3958 10.5273 18.4162 11.0875C18.4366 11.6476 18.2359 12.1788 17.814 12.6811L17.8642 12.741C18.5763 12.3422 19.2198 12.1943 19.7949 12.2972C20.3706 12.3928 20.9024 12.7322 21.3903 13.3154C22.0486 14.1024 22.2893 14.9502 22.1123 15.8588C21.936 16.7601 21.3585 17.6201 20.3798 18.4389L17.2159 21.0857L9.88705 12.3251ZM14.347 14.7463L15.7252 13.5933C16.3244 13.092 16.6833 12.6322 16.8018 12.2139C16.9171 11.7915 16.7842 11.3527 16.4032 10.8973C16.059 10.4858 15.6602 10.3135 15.2069 10.3804C14.7575 10.4439 14.2093 10.7464 13.5621 11.2878L12.3218 12.3254L14.347 14.7463ZM15.3195 15.9088L17.6404 18.6831L19.1624 17.4099C19.7617 16.9086 20.1178 16.4171 20.2309 15.9354C20.3447 15.4464 20.1944 14.9542 19.78 14.4588C19.399 14.0034 18.9608 13.7962 18.4654 13.8372C17.97 13.8781 17.4047 14.1643 16.7696 14.6957L15.3195 15.9088Z" fill="#0C1F26"/>
<path d="M33.0443 7.491C33.5099 8.82344 33.5316 9.98275 33.1093 10.9689C32.6871 11.9551 31.8662 12.6612 30.6469 13.0873C29.8848 13.3536 29.151 13.4169 28.4457 13.2772C27.7403 13.1375 27.1177 12.8006 26.578 12.2665C26.0382 11.7323 25.6198 11.0399 25.3225 10.1893C24.8603 8.86673 24.8388 7.71565 25.2579 6.73612C25.6769 5.75658 26.5035 5.05118 27.7376 4.61993C28.9177 4.20757 29.985 4.26218 30.9397 4.78374C31.8926 5.30038 32.5942 6.2028 33.0443 7.491ZM27.1073 9.56566C27.7654 11.4488 28.7901 12.1472 30.1816 11.661C31.5582 11.1799 31.9176 9.99781 31.2595 8.11468C30.6083 6.25122 29.5895 5.56175 28.203 6.04627C27.4753 6.30055 27.0309 6.72618 26.8699 7.32314C26.7137 7.91838 26.7929 8.66589 27.1073 9.56566Z" fill="#0C1F26"/>
<path d="M46.1876 6.98955C46.1698 8.4009 45.7939 9.49779 45.06 10.2802C44.326 11.0627 43.3133 11.4457 42.0217 11.4294C41.2145 11.4192 40.5033 11.2278 39.8882 10.8554C39.2731 10.483 38.8032 9.95362 38.4785 9.26716C38.1538 8.58071 37.9972 7.78699 38.0086 6.88602C38.0263 5.4851 38.3995 4.39598 39.1282 3.61868C39.8568 2.84138 40.8747 2.46101 42.1819 2.47755C43.4318 2.49337 44.4162 2.90951 45.1351 3.72597C45.8541 4.53722 46.2049 5.62508 46.1876 6.98955ZM39.8991 6.90995C39.8738 8.90459 40.5981 9.91123 42.072 9.92988C43.5302 9.94834 44.2719 8.96025 44.2972 6.96562C44.3221 4.99182 43.6003 3.99563 42.1317 3.97704C41.3609 3.96728 40.7978 4.21538 40.4424 4.72134C40.0923 5.22737 39.9111 5.9569 39.8991 6.90995Z" fill="#0C1F26"/>
<path d="M53.2802 8.71481L54.7108 7.86924L58.1351 6.19061L60.1155 6.9394L55.5512 9.18094L57.2641 15.0989L55.2473 14.3363L53.9932 9.81128L52.7576 10.2294L51.7104 12.999L50.0077 12.3552L54.3071 0.984637L56.0097 1.62843L53.9126 7.17488L53.2363 8.69824L53.2802 8.71481Z" fill="#0C1F26"/>
<path d="M71.6625 30.4414L70.3832 28.5431L74.7914 18.7985L74.7565 18.7466L74.3572 19.0628C73.5946 19.6647 72.8808 20.1898 72.2156 20.638L67.2919 23.9563L66.3445 22.5505L75.8161 16.1671L77.0823 18.0459L72.7042 27.7514L72.7304 27.7903C72.8239 27.7147 73.1729 27.4544 73.7774 27.0093C74.3862 26.5613 74.8655 26.2195 75.2153 25.9837L80.1779 22.6392L81.1341 24.058L71.6625 30.4414Z" fill="#0C1F26"/>
<path d="M78.7958 41.2904C77.4151 41.5837 76.2624 41.4585 75.3376 40.9148C74.4128 40.3711 73.8162 39.4675 73.5478 38.2041C73.3801 37.4144 73.4101 36.6785 73.638 35.9965C73.8658 35.3145 74.2788 34.7396 74.877 34.2718C75.4751 33.8039 76.2149 33.4764 77.0962 33.2892C78.4667 32.9981 79.6113 33.1224 80.5299 33.662C81.4485 34.2017 82.0437 35.1109 82.3153 36.3897C82.575 37.6124 82.3858 38.6642 81.7476 39.5452C81.1145 40.4251 80.1306 41.0069 78.7958 41.2904ZM77.4891 35.1386C75.5378 35.553 74.7153 36.4812 75.0216 37.923C75.3246 39.3495 76.4517 39.8555 78.403 39.441C80.3339 39.0309 81.1467 38.1075 80.8415 36.6708C80.6814 35.9167 80.3154 35.4221 79.7436 35.1868C79.1729 34.9566 78.4214 34.9405 77.4891 35.1386Z" fill="#0C1F26"/>
<path d="M73.2965 53.0201L77.4648 52.6678C77.9096 52.6138 78.9299 52.5567 80.5259 52.4967L80.5389 52.4276C79.2128 51.8706 78.2769 51.4507 77.7313 51.1678L73.9974 49.2964L74.3731 47.3002L83.3126 46.5184L82.9658 48.3611L78.5777 48.656C77.4975 48.7071 76.5793 48.7145 75.8229 48.6781L75.8143 48.7242C76.1783 48.8457 76.5912 49.0029 77.0531 49.1958C77.5191 49.3948 77.8652 49.5554 78.0913 49.6774L82.3169 51.8083L81.9441 53.7892L77.2401 54.1996C76.9749 54.2291 76.5732 54.2516 76.035 54.2669C75.4959 54.2873 75.0811 54.2808 74.7906 54.2473L74.779 54.3087C75.3942 54.504 76.2408 54.8488 77.319 55.3433L81.2967 57.2288L80.9556 59.0407L72.915 55.047L73.2965 53.0201Z" fill="#0C1F26"/>
<path d="M60.7643 71.6032L63.7535 73.1608L66.9631 70.1993L65.6333 67.1106L67.0802 65.7755L71.7168 77.1023L70.2239 78.4798L59.3059 72.9489L60.7643 71.6032ZM65.2066 74.0099L68.1018 75.5693C68.3005 75.6694 68.6034 75.8364 69.0105 76.0702C69.4137 76.3076 69.7052 76.4852 69.8847 76.603C69.5536 76.0368 69.2298 75.3824 68.9132 74.6399L67.6526 71.753L65.2066 74.0099Z" fill="#0C1F26"/>
<path d="M44.9472 77.594L46.7928 77.3109L48.2816 87.0177L51.6021 86.5085L51.8449 88.0915L43.3582 89.3932L43.1154 87.8101L46.436 87.3008L44.9472 77.594Z" fill="#0C1F26"/>
<path d="M31.6162 85.62C31.2513 85.5604 30.9547 85.4857 30.7267 85.3957L31.1796 83.736C31.4265 83.8396 31.6888 83.9141 31.9664 83.9594C32.6912 84.0777 33.3183 83.9373 33.8478 83.5382C34.3722 83.1382 34.6961 82.5605 34.8194 81.8048L35.5467 77.3482L37.3586 77.6438L35.967 86.1717L34.5483 85.9401L34.5546 84.3976L34.4621 84.3825C34.0963 84.8453 33.6629 85.1888 33.1619 85.4131C32.6558 85.6366 32.1405 85.7056 31.6162 85.62Z" fill="#0C1F26"/>
<path d="M26.635 74.5413L28.3132 75.2859L24.809 83.184L23.1309 82.4395L26.635 74.5413ZM23.9807 85.3208C23.8476 85.6207 23.6642 85.8157 23.4306 85.9058C23.1921 85.9937 22.9206 85.9701 22.6159 85.8349C22.3207 85.7039 22.1281 85.5216 22.038 85.2879C21.9432 85.0521 21.9623 84.7843 22.0954 84.4843C22.2221 84.1987 22.4058 84.0095 22.6463 83.9168C22.88 83.8268 23.1445 83.8472 23.4396 83.9782C23.7443 84.1134 23.9441 84.2988 24.0389 84.5346C24.1268 84.7731 24.1074 85.0351 23.9807 85.3208Z" fill="#0C1F26"/>
<path d="M18.4405 68.7788C19.2712 69.4903 19.6602 70.3412 19.6074 71.3316L19.6905 71.4027C20.1094 70.8015 20.3697 70.4415 20.4714 70.3229L22.7736 67.635L24.168 68.8293L16.0466 78.311L14.9193 77.3454C14.9926 77.1957 15.1781 76.8471 15.4756 76.2995L15.4044 76.2386C14.4001 76.5304 13.4628 76.3036 12.5925 75.5582C11.7737 74.8569 11.391 74.0147 11.4443 73.0318C11.4937 72.0454 11.9774 71.0162 12.8956 69.9442C13.8138 68.8722 14.7638 68.2355 15.7456 68.0341C16.7234 67.8292 17.6217 68.0775 18.4405 68.7788ZM13.9303 74.729C14.4841 75.2034 15.0284 75.3885 15.5634 75.2843C16.0944 75.1768 16.6648 74.767 17.2747 74.055L17.4525 73.8474C18.1369 73.0483 18.5067 72.3604 18.5619 71.7836C18.6137 71.2107 18.3528 70.6787 17.7792 70.1874C17.2966 69.774 16.7554 69.6533 16.1555 69.8253C15.5556 69.9972 14.9422 70.4491 14.3154 71.1809C13.6852 71.9167 13.3397 72.5842 13.2789 73.1836C13.2108 73.7836 13.4279 74.2987 13.9303 74.729Z" fill="#0C1F26"/>
<path d="M45.7071 44.2929C46.0976 44.6834 46.0976 45.3166 45.7071 45.7071L39.3431 52.0711C38.9526 52.4616 38.3195 52.4616 37.9289 52.0711C37.5384 51.6805 37.5384 51.0474 37.9289 50.6569L43.5858 45L37.9289 39.3431C37.5384 38.9526 37.5384 38.3195 37.9289 37.9289C38.3195 37.5384 38.9526 37.5384 39.3431 37.9289L45.7071 44.2929ZM0 44L45 44V46L0 46L0 44Z" fill="black"/>
</g>
<defs>
<clipPath id="clip0_109_106">
<rect width="90" height="90" fill="white" transform="matrix(0 1 -1 0 90 0)"/>
</clipPath>
</defs>
</svg>
