<svg width="28" height="28" viewBox="0 0 28 28" fill="none" xmlns="http://www.w3.org/2000/svg">
<g id="calendar-line" clip-path="url(#clip0_49_101)">
<g id="Group">
<path id="Vector" d="M19.833 3.50008H24.4997C24.8091 3.50008 25.1058 3.623 25.3246 3.84179C25.5434 4.06058 25.6663 4.35733 25.6663 4.66675V23.3334C25.6663 23.6428 25.5434 23.9396 25.3246 24.1584C25.1058 24.3772 24.8091 24.5001 24.4997 24.5001H3.49967C3.19026 24.5001 2.89351 24.3772 2.67472 24.1584C2.45592 23.9396 2.33301 23.6428 2.33301 23.3334V4.66675C2.33301 4.35733 2.45592 4.06058 2.67472 3.84179C2.89351 3.623 3.19026 3.50008 3.49967 3.50008H8.16634V1.16675H10.4997V3.50008H17.4997V1.16675H19.833V3.50008ZM17.4997 5.83342H10.4997V8.16675H8.16634V5.83342H4.66634V10.5001H23.333V5.83342H19.833V8.16675H17.4997V5.83342ZM23.333 12.8334H4.66634V22.1667H23.333V12.8334Z" fill="#1B485A"/>
</g>
</g>
<defs>
<clipPath id="clip0_49_101">
<rect width="28" height="28" fill="white"/>
</clipPath>
</defs>
</svg>
