<svg width="90" height="91" viewBox="0 0 90 91" fill="none" xmlns="http://www.w3.org/2000/svg">
<g clip-path="url(#clip0_90_21)">
<path d="M17.959 9.83187C17.1161 10.4957 16.6885 11.3164 16.6762 12.2941C16.6638 13.2717 17.0718 14.2863 17.8999 15.3379C18.7668 16.4386 19.6537 17.0892 20.5608 17.2897C21.472 17.487 22.3674 17.2393 23.2471 16.5464C23.6277 16.2467 23.9669 15.9199 24.2649 15.5659C24.5597 15.2078 24.8526 14.8179 25.1438 14.3964L26.1347 15.6546C25.6404 16.4748 24.9472 17.2362 24.0552 17.9387C22.7418 18.9731 21.4206 19.3705 20.0916 19.131C18.7595 18.8874 17.5101 18.025 16.3436 16.5437C15.6089 15.6108 15.1358 14.6608 14.9244 13.6936C14.717 12.7233 14.79 11.7973 15.1432 10.9158C15.4965 10.0343 16.1089 9.25038 16.9804 8.56399C17.897 7.84215 18.8954 7.36741 19.9758 7.13977L20.4098 8.77685C19.9943 8.8721 19.5748 9.00027 19.1514 9.16135C18.7288 9.31512 18.3314 9.53862 17.959 9.83187Z" fill="white"/>
<path d="M36.7398 7.62807C37.1462 8.97974 37.1168 10.1389 36.6515 11.1055C36.1862 12.0721 35.335 12.7414 34.0981 13.1133C33.325 13.3458 32.5892 13.3767 31.8907 13.2061C31.1921 13.0354 30.585 12.6714 30.0693 12.114C29.5536 11.5566 29.1661 10.8464 28.9066 9.98358C28.5031 8.64188 28.5323 7.49098 28.9941 6.53085C29.456 5.57073 30.3128 4.90244 31.5647 4.52598C32.7618 4.16602 33.8257 4.26759 34.7564 4.83071C35.6857 5.38884 36.3468 6.32129 36.7398 7.62807ZM30.7171 9.43913C31.2916 11.3494 32.2845 12.0923 33.6961 11.6679C35.0926 11.2479 35.5037 10.0828 34.9292 8.17251C34.3608 6.28217 33.3733 5.54848 31.9668 5.97144C31.2286 6.19341 30.7659 6.59905 30.5787 7.18833C30.3965 7.77611 30.4426 8.52638 30.7171 9.43913Z" fill="white"/>
<path d="M49.6282 12.2036L47.7908 12.051L48.2307 6.7567C48.2859 6.09233 48.1921 5.58543 47.9494 5.236C47.7118 4.88701 47.3024 4.68837 46.7211 4.64007C45.9477 4.57581 45.3629 4.75719 44.9669 5.18419C44.5708 5.6112 44.3281 6.36191 44.2388 7.43633L43.8824 11.7262L42.0528 11.5742L42.7682 2.96327L44.2008 3.08229L44.3639 4.23256L44.4573 4.24032C44.7509 3.85184 45.1457 3.56584 45.6418 3.38233C46.1379 3.19881 46.6766 3.1312 47.2579 3.1795C49.3237 3.35114 50.2693 4.48802 50.0946 6.59015L49.6282 12.2036Z" fill="white"/>
<path d="M57.9326 13.9727C58.3413 14.156 58.7788 14.2751 59.245 14.3301L58.6791 15.5918C58.4575 15.5895 58.1877 15.5484 57.8696 15.4685C57.5542 15.3956 57.2396 15.2887 56.926 15.1481C55.3387 14.4362 54.9202 13.2438 55.6704 11.571L57.5759 7.32252L56.4995 6.83977L56.832 6.09841L58.2617 6.0033L59.5801 4.59102L60.6137 5.05459L59.8273 6.80817L62.0727 7.81525L61.5036 9.0841L59.2582 8.07703L57.3655 12.297C57.1844 12.701 57.1499 13.0451 57.2621 13.3295C57.3812 13.6112 57.6047 13.8256 57.9326 13.9727Z" fill="white"/>
<path d="M66.5109 21.9801L67.0603 20.8485L67.0145 20.806C66.3512 20.908 65.7995 20.8862 65.3592 20.7404C64.9224 20.5908 64.4616 20.291 63.9768 19.841C63.3546 19.2634 63.0239 18.6437 62.9845 17.9818C62.9489 17.3234 63.2164 16.6869 63.7869 16.0724C64.3928 15.4196 65.0923 15.1522 65.8854 15.2701C66.6784 15.388 67.5854 15.8924 68.6062 16.7831L69.7317 17.7639L70.0453 17.4261C70.4209 17.0215 70.6054 16.6313 70.5988 16.2557C70.5996 15.8797 70.4014 15.5075 70.0045 15.139C69.68 14.8378 69.3246 14.5967 68.9383 14.4158C68.5519 14.2348 68.1611 14.0817 67.7658 13.9563L68.2236 12.5905C68.7337 12.7299 69.2355 12.9435 69.7289 13.231C70.226 13.5147 70.6558 13.8249 71.0184 14.1615C71.8239 14.9092 72.2678 15.6481 72.3503 16.3785C72.4365 17.1123 72.1306 17.8553 71.4326 18.6073L67.4728 22.873L66.5109 21.9801ZM65.3573 19.2036C65.8459 19.6572 66.3629 19.8849 66.9084 19.8867C67.4613 19.8883 67.9663 19.6428 68.4234 19.1504L68.9336 18.6007L68.0887 17.8803C67.4338 17.315 66.8727 16.9932 66.4054 16.9147C65.9455 16.836 65.5348 16.9913 65.1734 17.3807C64.9112 17.6632 64.7914 17.9606 64.8141 18.273C64.8403 18.5816 65.0214 18.8918 65.3573 19.2036Z" fill="white"/>
<path d="M71.85 30.2377C71.2418 29.0805 71.1156 28.023 71.4713 27.0653C71.8341 26.1098 72.6471 25.3001 73.9103 24.6362C75.1966 23.9602 76.3503 23.7539 77.3714 24.0175C78.3949 24.2857 79.2192 25.0145 79.8444 26.204C80.2684 27.0108 80.5002 27.8157 80.5397 28.6187L78.9746 28.8146C78.881 27.9871 78.7167 27.3497 78.4816 26.9025C77.7862 25.5793 76.5603 25.3793 74.8037 26.3025C73.9462 26.7531 73.3867 27.256 73.1254 27.8111C72.871 28.3684 72.9111 28.9652 73.2454 29.6014C73.6258 30.3253 74.1655 30.9154 74.8643 31.3719L73.4466 32.1169C73.1234 31.9161 72.8376 31.6691 72.5894 31.376C72.3436 31.0874 72.0971 30.708 71.85 30.2377Z" fill="white"/>
<path d="M76.1199 39.4017C76.2007 39.8422 76.3507 40.2701 76.5699 40.6853L75.2098 40.9348C75.086 40.751 74.9668 40.5055 74.8522 40.1982C74.7334 39.897 74.643 39.5773 74.581 39.2392C74.267 37.5282 75.0117 36.5073 76.8149 36.1764L81.3947 35.3362L81.1818 34.1758L81.981 34.0292L82.8702 35.1528L84.7811 35.4377L84.9856 36.5519L83.0952 36.8987L83.5393 39.3192L82.1715 39.5702L81.7274 37.1496L77.1784 37.9843C76.7429 38.0642 76.4399 38.2309 76.2694 38.4846C76.1049 38.7425 76.0551 39.0482 76.1199 39.4017Z" fill="white"/>
<path d="M80.7537 66.2618L73.9794 63.3071C73.206 62.9697 72.601 62.507 72.1643 61.9188C71.7303 61.3374 71.4932 60.6629 71.453 59.8953C71.4155 59.1346 71.5872 58.3174 71.9683 57.4438C72.5347 56.1452 73.3188 55.2855 74.3207 54.8644C75.3225 54.4434 76.425 54.4953 77.628 55.02L84.3737 57.9622L83.6241 59.6808L77.0002 56.7917C76.1361 56.4148 75.4113 56.3374 74.8258 56.5593C74.2403 56.7812 73.7664 57.3075 73.4041 58.1382C72.7003 59.7518 73.1958 60.9282 74.8906 61.6674L81.5002 64.5503L80.7537 66.2618Z" fill="white"/>
<path d="M65.0952 70.8584C64.4919 70.2685 64.2431 69.5955 64.3488 68.8392C64.4583 68.0867 64.9135 67.3008 65.7146 66.4815C66.5194 65.6585 67.2905 65.1195 68.0279 64.8645L69.1618 65.9733C68.1166 66.3717 67.2881 66.8837 66.6764 67.5094C65.8862 68.3174 65.735 68.96 66.2229 69.437C66.3793 69.5899 66.5533 69.6727 66.745 69.6853C66.9366 69.6979 67.1884 69.6564 67.5004 69.5608C67.8124 69.4652 68.2176 69.3042 68.716 69.0776C69.687 68.6358 70.4341 68.423 70.9573 68.4392C71.4769 68.4592 71.9563 68.684 72.3958 69.1137C72.9245 69.6308 73.1266 70.2436 73.002 70.9521C72.8774 71.668 72.4564 72.3928 71.7391 73.1264C71.029 73.8526 70.2101 74.3958 69.2823 74.7561L68.7087 73.3648C69.6361 72.9677 70.3219 72.5419 70.7662 72.0876C71.4435 71.395 71.5847 70.8557 71.19 70.4697C70.9964 70.2803 70.7451 70.2095 70.4363 70.2572C70.1238 70.3085 69.5535 70.523 68.7253 70.9006C68.0291 71.2178 67.4862 71.4117 67.0966 71.4824C66.707 71.553 66.3495 71.5386 66.0243 71.4391C65.7028 71.3433 65.3931 71.1497 65.0952 70.8584Z" fill="white"/>
<path d="M43.2987 76.6742L45.5509 76.2652L52.7041 84.2164L52.7656 84.2052L52.6365 83.7126C52.3916 82.7725 52.1975 81.9078 52.0542 81.1186L50.9931 75.2767L52.6611 74.9738L54.7023 86.2118L52.4731 86.6167L45.3436 78.7087L45.2975 78.7171C45.3291 78.8331 45.4274 79.2573 45.5921 79.9896C45.7578 80.7271 45.8784 81.3034 45.9538 81.7184L47.0232 87.6065L45.3398 87.9122L43.2987 76.6742Z" fill="white"/>
<path d="M30.3419 78.6797C30.6493 77.3021 31.2424 76.3058 32.1214 75.6908C33.0004 75.0758 34.0702 74.9089 35.3309 75.1902C36.1188 75.366 36.7755 75.6993 37.3011 76.1901C37.8266 76.6809 38.1777 77.2956 38.3545 78.0341C38.5312 78.7726 38.5215 79.5815 38.3253 80.461C38.0202 81.8284 37.4312 82.8176 36.5585 83.4287C35.6857 84.0397 34.6114 84.2029 33.3355 83.9183C32.1155 83.646 31.2375 83.0366 30.7017 82.0899C30.1647 81.1483 30.0447 80.0115 30.3419 78.6797ZM36.48 80.0492C36.9144 78.1023 36.4123 76.9684 34.9738 76.6474C33.5504 76.3298 32.6216 77.1445 32.1872 79.0914C31.7573 81.018 32.2591 82.1412 33.6926 82.4611C34.4449 82.6289 35.047 82.5018 35.4987 82.0796C35.9454 81.6563 36.2725 80.9795 36.48 80.0492Z" fill="white"/>
<path d="M21.9413 68.6562L20.4659 72.5705C20.3233 72.9953 19.9358 73.9409 19.3033 75.4074L19.3601 75.4488C20.4334 74.4914 21.2152 73.8273 21.7053 73.4564L25.0012 70.891L26.6415 72.089L23.501 80.4952L21.9868 79.3893L23.6086 75.3012C24.0272 74.3041 24.4156 73.472 24.7739 72.805L24.736 72.7773C24.4697 73.0536 24.1501 73.3587 23.7772 73.6927C23.3971 74.0277 23.1033 74.2711 22.8958 74.4227L19.1541 77.3203L17.5264 76.1315L19.1798 71.7086C19.2673 71.4565 19.4198 71.0842 19.6376 70.5918C19.8511 70.0963 20.0355 69.7247 20.1907 69.4769L20.1402 69.44C19.6993 69.9113 19.0237 70.5272 18.1135 71.2877L14.7 74.0672L13.2111 72.9798L20.2758 67.4397L21.9413 68.6562Z" fill="white"/>
<path d="M45.7071 44.7929C46.0976 45.1834 46.0976 45.8166 45.7071 46.2071L39.3431 52.5711C38.9526 52.9616 38.3195 52.9616 37.9289 52.5711C37.5384 52.1805 37.5384 51.5474 37.9289 51.1569L43.5858 45.5L37.9289 39.8431C37.5384 39.4526 37.5384 38.8195 37.9289 38.4289C38.3195 38.0384 38.9526 38.0384 39.3431 38.4289L45.7071 44.7929ZM0 44.5L45 44.5V46.5L0 46.5L0 44.5Z" fill="white"/>
</g>
<defs>
<clipPath id="clip0_90_21">
<rect width="90" height="90" fill="white" transform="matrix(0 1 -1 0 90 0.5)"/>
</clipPath>
</defs>
</svg>
