<svg width="1920" height="1553" viewBox="0 0 1920 1553" fill="none" xmlns="http://www.w3.org/2000/svg">
<path d="M1394.48 435.968C1395.84 434.285 1395.98 431.543 1399.21 431.453C1400.21 431.426 1400.88 428.778 1401.76 427.239C1404.78 428.018 1406.76 430.06 1408.15 432.809C1409.12 434.737 1410.57 436.255 1412.61 435.948C1418.24 435.099 1423.54 436.819 1429.93 440.132C1429.04 437.939 1428.71 436.829 1428.15 435.841C1426.28 432.548 1427.32 430.217 1430.78 430.274C1431.69 430.289 1432.63 430.613 1433.54 430.868C1439.76 432.605 1445.98 434.372 1452.21 436.09C1452.72 436.233 1453.29 436.092 1454.33 436.076L1454 431.792C1454.41 431.384 1454.53 431.155 1454.67 431.15C1462.49 430.899 1470.13 429.017 1478.24 431.544C1481.66 432.613 1485.25 433.003 1488.77 433.497C1493.78 434.198 1498.71 434.847 1503.62 436.891C1506.72 438.18 1510.22 438.198 1513.93 438.854C1514.71 435.064 1517.39 435.052 1520.66 435.483C1526.18 436.209 1530.88 438.529 1535.91 441.463C1545.56 447.098 1554.82 453.872 1565.52 457.193C1572.02 459.208 1577.94 462.377 1582.75 467.674C1583.15 468.112 1583.71 468.449 1583.98 468.941C1584.89 470.597 1586.48 472.433 1586.38 473.954C1586.23 476.247 1583.7 476.342 1581.72 476.775C1577.16 477.773 1572.65 478.967 1568.09 481.133C1569.13 481.66 1570.16 482.528 1571.21 482.654C1575.63 483.183 1579.99 484.474 1584.49 483.647C1586.74 483.235 1589.64 484.38 1592.02 485.452C1602.01 489.954 1611.83 494.945 1621.88 499.255C1627.89 501.832 1634.16 503.546 1639.74 507.377C1641.13 508.327 1642.95 508.567 1644.53 509.118C1646.25 505.747 1649.92 504.636 1653.33 507.732C1659.03 512.915 1665.61 514.513 1672.26 516.759C1679.56 519.221 1685.68 523.631 1688.33 531.711C1688.55 532.405 1689.08 533.106 1689.62 533.635C1693.82 537.725 1698.05 541.773 1703.19 546.721L1702.21 538.781C1704.35 539.836 1705.9 540.329 1707.16 541.272C1711.99 544.906 1717 547.277 1722.95 547.174C1725.33 547.134 1727.92 548.521 1730.38 549.406C1733.01 550.357 1735.61 551.48 1738.83 552.775L1737.54 548.421C1741.04 545.533 1744.58 546.303 1748.52 548.174C1755.83 551.642 1763.22 554.904 1770.66 558.011C1782.9 563.126 1794.44 569.775 1805.79 576.884C1806.28 577.192 1806.76 577.563 1807.17 577.984C1813.67 584.776 1821.95 587.181 1830.23 589.416C1838.7 591.702 1846.63 595.167 1854.37 599.876C1858.43 602.346 1862.07 604.583 1865.07 608.482C1866.73 610.65 1869.75 611.85 1872.25 613.328C1873.57 614.115 1875.05 614.659 1876.49 615.149C1890.99 620.053 1905.43 625.136 1919.36 633.66L1920.22 628.961C1921.46 629.113 1922.72 629.082 1923.9 629.446C1931.22 631.693 1938.21 634.872 1945.09 638.558C1951.9 642.209 1959.08 645.006 1965.97 648.509C1971.31 651.224 1976.39 654.544 1981.67 657.417C1985.58 659.547 1989.67 661.263 1993.59 663.384C2002.82 668.388 2011.57 674.265 2019.43 681.459C2026.1 687.566 2034.1 690.916 2041.73 695.028C2049.19 699.047 2055.59 704.306 2061.11 711.432L2058.33 713.622L2059.63 722.475C2055.03 722.309 2051.27 721.045 2047.94 718.694C2040.92 713.747 2034.03 708.597 2027.18 703.402C2022.29 699.693 2018.16 699.283 2013.52 702.337C2012.39 703.079 2011.16 703.679 2009.68 704.516C2015.07 709.532 2019.4 715.483 2026.05 718.789C2028.89 720.197 2031.03 722.491 2031.58 726.049C2026.97 729.492 2022.13 726.678 2018 724.369C2014.94 722.658 2012.97 722.685 2010.33 723.865C2006.62 725.527 2003.08 726.764 2000.7 730.775C1997.89 735.533 1993.37 735.305 1988.18 731.753C1986.25 730.435 1984.35 728.904 1982.26 728.083C1980.52 727.398 1978.58 726.519 1976.9 728.79C1974.71 731.734 1973.41 731.3 1971.06 727.876C1970.29 726.758 1969.54 725.627 1969.12 725.003L1959.46 724.803C1959.57 728.09 1959.25 731.804 1960 735.399C1960.33 737 1962.6 738.94 1964.34 739.704C1967.81 741.23 1970.22 743.185 1971.17 747.049C1971.51 748.454 1972.94 749.656 1973.54 751.069C1974.37 753.007 1975.92 755.635 1975.32 756.952C1973.71 760.488 1975.88 762.659 1977.66 765.179C1978.11 765.823 1978.6 766.451 1979.04 767.105C1982.68 772.54 1981.27 775.671 1975.15 775.796C1974.82 775.803 1974.52 776.048 1973.69 776.4L1977.84 785.724L1970.99 786.314C1971.25 788.092 1971.47 789.898 1971.8 791.694C1972.41 794.989 1972.45 798.144 1970.71 800.896C1969.13 803.414 1967.54 803.443 1965.49 800.818C1964.16 799.123 1963.13 797.209 1961.93 795.413C1960.61 793.451 1959.37 791.431 1957.91 789.579C1954.23 784.923 1951.02 780.095 1948.68 774.615C1946.93 770.533 1944.63 766.467 1941.83 762.981C1937.38 757.441 1934.49 751.292 1932.37 744.842C1931.13 741.091 1930.71 737.088 1930.38 733.204C1930.3 732.269 1931.86 731.016 1932.98 730.518C1935.38 729.447 1937.98 728.774 1940.85 727.819C1937.87 722.117 1941.74 718.694 1942.89 714.479C1943.1 713.705 1944.56 713.337 1945.5 712.912C1948.44 711.597 1948.74 710.831 1947.1 707.942C1946.24 706.419 1945.21 704.978 1944.11 703.257C1941.59 703.618 1939.18 703.916 1937.43 706.493C1935.75 708.971 1933.79 708.789 1931.24 706.63C1928.33 704.156 1924.57 702.31 1924.19 697.794C1918.89 696.03 1914.37 691.892 1908.87 692.568C1907.47 695.019 1905.95 697.209 1904.89 699.639C1903.86 702.007 1904.38 704.322 1906.9 706.105C1908.85 707.483 1910.89 708.933 1909.07 712.111C1904.22 711.243 1899.14 710.489 1894.1 709.37C1891.37 708.763 1889.36 706.834 1887.09 704.808C1882.84 701.023 1878.37 697.406 1871.76 697.393C1866.02 697.382 1859.81 694.779 1854.12 692.354C1849.06 690.197 1841.22 687.334 1835.81 687.301L1826.35 698.61C1825.89 699.156 1825.34 699.646 1825.02 700.274C1823.73 702.814 1822.76 705.588 1821.19 707.915C1819.62 710.244 1817.48 712.146 1815.35 714.499C1818.06 715.812 1820.42 716.985 1822.8 718.103C1825.08 719.178 1826.6 720.784 1826.87 723.378C1827.18 726.44 1828.79 728.198 1831.84 728.979C1833.21 729.327 1834.44 730.534 1836.05 731.545L1837.55 728.303C1846.33 730.998 1856.11 738.577 1861.34 747.319L1861.76 737.3C1864.31 737.399 1865.1 739.169 1866.04 740.878C1868.66 745.623 1869.8 751.214 1874.55 754.747C1874.7 754.853 1874.79 755.065 1874.87 755.242C1877.74 761.619 1880.85 767.921 1883.39 774.401C1885.12 778.821 1886.73 782.998 1890.7 786.15C1892.9 787.893 1894.97 790.201 1893.98 793.824L1889.2 792.493C1888.15 797.533 1890.09 801.924 1892.48 806.148C1894.78 810.223 1897.38 814.144 1900.14 818.608C1898.45 818.978 1897 818.951 1895.99 819.578C1892.76 821.577 1890.47 821.035 1889.04 817.202C1887.26 812.471 1885.9 807.614 1884.36 802.813C1882.43 796.797 1880.6 790.756 1878.54 784.776C1877.02 780.37 1875.46 775.935 1873.44 771.713C1871.36 767.375 1868.69 763.28 1866.17 758.906C1863.41 760.698 1864.64 763.126 1865.27 765.016C1866.8 769.611 1868.39 774.255 1870.58 778.607C1873.58 784.601 1872.08 789.643 1869.96 794.745C1868.37 798.568 1866.83 802.415 1865.21 806.22C1864.36 808.205 1863.52 810.205 1862.46 812.057C1859.72 816.876 1856.68 821.511 1854.09 826.419C1851.08 832.116 1848.09 834.252 1842.57 833.112C1840.49 832.685 1838.41 831.323 1836.57 830.018C1835.03 828.933 1833.84 827.305 1832.43 825.846C1826.97 827.518 1823.83 831.034 1824.08 836.58C1824.29 841.362 1822.18 843.775 1818.56 845.52C1811.3 849.031 1811.32 850.705 1817.14 857.998C1824.92 867.748 1830.03 878.627 1831.21 890.793C1831.73 896.173 1830.96 896.896 1825.62 896.901C1822.68 896.903 1819.75 897.102 1816.8 897.066C1815.01 897.044 1813.19 896.747 1811.01 896.537L1807.58 872.688C1810.16 868.314 1808.51 864.637 1801.54 861.846C1795.53 859.438 1794.1 857.008 1795.32 851.276C1796.31 846.61 1792.39 841.266 1786.66 839.742C1783.12 838.797 1779.68 838.655 1776.52 840.593C1774.63 841.755 1772.64 843.312 1769.58 841.768C1769.04 838.132 1767.41 834.556 1769.8 830.771C1771.53 828.036 1769.59 825.981 1763.84 823.661C1761.61 826.955 1756.71 827.326 1755 831.818C1754.54 833.025 1751.52 833.17 1749.59 833.436C1748.42 833.598 1747.08 833.058 1745.59 832.793C1745.82 836.173 1747.52 837.866 1750.3 839.032C1754.1 840.633 1757.66 842.345 1757.13 847.743C1756.98 849.233 1759.11 851.191 1761.03 854.276C1762.03 853.092 1762.5 852.256 1763.22 851.737C1766.39 849.425 1767.44 849.348 1770.47 851.991C1773.19 854.351 1775.91 856.424 1779.35 857.348C1781.42 857.903 1783.07 859.532 1782.34 861.52C1781.95 862.593 1779.69 863.616 1778.44 863.32C1774.5 862.387 1771.6 863.228 1769.12 866.072C1768.25 867.077 1766.72 867.529 1765.41 868.07C1763.05 869.041 1761.6 870.629 1761.69 873.439C1761.9 873.761 1762.05 874.262 1762.32 874.375C1771.66 878.254 1772.19 887.307 1775.04 894.861C1776.27 898.116 1776.99 901.362 1779.29 904.3C1780.57 905.945 1781.53 907.809 1782.1 909.773C1782.67 911.738 1782.84 913.761 1782.61 915.713C1782.37 917.72 1780.27 919.308 1778.79 921.4C1779.17 921.611 1779.9 921.981 1780.6 922.419C1783.59 924.309 1784.54 926.509 1783.76 929.684C1781.73 937.967 1776.95 944.576 1772.44 951.342C1771.65 952.529 1770.3 953.387 1769.81 954.686C1766.09 964.556 1757.81 968.949 1749.02 973.159C1744.83 975.164 1740.53 975.594 1736.05 976.072C1733.57 976.337 1731.2 976.314 1728.93 977.939C1726.31 979.817 1723.75 977.601 1721.77 974.699C1718.77 977.179 1715.63 978.48 1711.2 976.731C1708.29 975.58 1704.95 975.712 1701.82 975.643C1700.83 975.621 1699.85 976.72 1699.02 977.473C1698.7 977.764 1698.81 978.527 1698.7 979.069C1698.28 981.15 1698.61 984.015 1695.27 983.443C1692.33 982.94 1692.74 980.335 1692.47 978.387C1691.21 969.606 1684.31 966.181 1676.77 969.738C1672.64 971.684 1669.14 973.871 1666.36 977.41C1663.09 981.57 1662.96 985.577 1665.65 990.898C1670.76 1001 1675.63 1011.22 1680.58 1021.4C1681.09 1022.45 1681.71 1023.58 1681.81 1024.66C1682.67 1034.58 1685.05 1044.8 1681.11 1053.97C1680 1056.57 1677.38 1058.95 1674.78 1060.06C1670.61 1061.84 1665.88 1062.48 1660.34 1063.86C1657.31 1068.14 1648.41 1072.96 1642.76 1072.26C1643.05 1068.44 1643.3 1064.62 1643.62 1060.82C1643.95 1057.03 1643.19 1056.17 1639.14 1055.81C1637.81 1053.86 1636.48 1051.99 1635.25 1050.07C1634.75 1049.28 1634.1 1048.33 1634.1 1047.52C1634.13 1041.25 1630.21 1036.26 1627.5 1030.9C1626.88 1029.68 1625.34 1028.74 1624.07 1027.98C1622.59 1027.11 1620.94 1026.58 1619.12 1025.79C1619.09 1024.11 1619.29 1022.6 1618.95 1021.17C1618.74 1020.29 1617.76 1019 1617.04 1018.86C1616.26 1018.71 1615 1019.47 1614.63 1020.23C1613.93 1021.67 1613.65 1023.36 1613.32 1024.99C1612.54 1028.84 1611.18 1032.31 1608.71 1035.29C1605.67 1038.95 1604.35 1043.51 1603.96 1048.88C1608.02 1050.64 1608.74 1053.93 1608.71 1057.99C1608.68 1061.87 1609.51 1065.86 1610.14 1069.8C1610.34 1071.04 1610.91 1072.97 1611.72 1073.32C1614.94 1074.7 1615.31 1077.73 1616.79 1080.19C1619.01 1083.89 1622.02 1087.04 1623.82 1091.12C1626.19 1096.51 1627.66 1101.59 1625.87 1107.07C1624.48 1111.31 1624.77 1115.89 1625.7 1120.48C1626.12 1122.55 1626.39 1124.64 1626.7 1126.72C1627.01 1128.76 1626.1 1130.17 1624.25 1130.25C1622.77 1130.31 1620.73 1129.99 1619.72 1129C1616.68 1126.01 1614.02 1122.6 1611.21 1119.36C1608.16 1115.84 1605.55 1112.18 1606.42 1107.39C1606.45 1107.21 1606.51 1106.98 1606.43 1106.84C1602.25 1098.88 1606.12 1090.78 1603.66 1082.84C1601.65 1076.4 1599.44 1070 1597.05 1063.66C1596.6 1062.48 1594.92 1061.67 1593.31 1060.25C1592.44 1055.99 1593.82 1051.73 1595.54 1047.48C1596.46 1045.21 1596.83 1042.65 1597.37 1040.2C1597.6 1039.13 1597.32 1037.79 1597.82 1036.93C1602.94 1028.17 1602.4 1018.38 1600.45 1008.2C1599.52 1003.35 1599.39 998.424 1598.54 993.562C1597.77 989.106 1596.53 984.683 1595.23 979.14C1593.94 984.207 1591.05 985.147 1586.88 984.512C1585.03 984.23 1583.11 985.417 1581.35 985.901L1573.43 980.097C1573.62 979.036 1573.55 977.632 1574.09 976.61C1576.48 972.099 1576.8 967.171 1575.81 961.95C1575.02 957.805 1574.3 953.638 1573.2 949.544C1572.74 947.862 1571.21 946.405 1570.41 944.746C1568.06 939.884 1565.52 935.06 1563.66 930.047C1562.12 925.922 1561.44 921.548 1560.33 917.085C1559.43 916.975 1558.61 916.623 1558.06 916.847C1553.66 918.652 1548.82 917.892 1544.4 916.645C1538.3 914.926 1532.7 915.185 1526.75 916.513C1527.68 923.684 1522.68 925.647 1517.33 926.487C1513 927.165 1509.86 929.199 1506.35 931.422C1501.21 934.685 1497.1 939.955 1490.17 940.277C1489.81 940.295 1489.32 940.385 1489.17 940.634C1485.23 946.95 1477.24 944.981 1471.24 948.566C1470.92 952.028 1470.18 956.042 1470.24 960.126C1470.33 965.697 1468.54 970.328 1465.6 974.467C1463.04 978.065 1461.23 981.777 1461.81 986.7C1462.11 989.229 1461.54 991.64 1458.26 991.727C1457.58 991.746 1456.55 992.058 1456.39 992.543C1454.33 998.656 1447.66 998.498 1443.51 1001.77C1439.74 1004.74 1436.92 1003.67 1434.61 998.905C1433.66 996.974 1432.98 994.944 1432.57 992.875C1430.67 982.724 1428.84 972.566 1427.1 962.401C1426.59 959.388 1426.57 956.337 1426.05 953.325C1425.23 948.643 1424.2 943.977 1423.21 939.309C1422.9 937.811 1422.25 936.326 1422.11 934.837C1420.98 922.831 1417.8 910.823 1419.9 898.829C1420.99 892.617 1420.17 885.887 1420.48 879.433C1420.59 877.18 1421.48 875.048 1421.22 872.552C1420.85 872.898 1420.2 873.187 1420.17 873.594C1419.97 876.111 1419.57 879.007 1417.1 879.478C1414 880.073 1410.55 879.66 1407.26 879.243C1406.34 879.127 1405.01 877.589 1404.63 876.501C1403.2 872.379 1400.96 868.85 1398.05 865.527C1396.79 864.095 1396.37 861.921 1395.3 859.458L1400.95 859.391C1391.71 850.741 1385.07 840.644 1381.04 827.955C1376.2 826.7 1370.93 824.839 1365.61 824.059C1355.01 822.506 1345.05 818.86 1335.51 813.335C1329.96 810.118 1324.46 806.786 1318.85 803.69C1316.14 802.194 1314.69 800.27 1314.68 797.247C1314.68 796.317 1314.41 795.356 1314.23 794.41C1313.29 789.285 1312.88 789.295 1307.56 789.501C1302.51 789.696 1297.77 789.511 1292.93 785.103C1288.43 781.008 1283.62 777.392 1280.1 772.314C1279.65 771.672 1279.19 770.851 1278.56 770.551C1274.2 768.455 1273.59 764.569 1273.7 760.789C1273.83 756.568 1271.94 752.968 1270.32 749.235C1268.93 746.056 1266.03 744.587 1263.18 743.585C1258.89 742.078 1254.32 745.648 1255.02 750.232C1255.95 756.351 1257.16 762.464 1261.45 767.814C1263.86 770.81 1265.49 774.42 1267.56 777.919L1269.62 777.125L1269.8 780.774C1275.19 783.705 1275.93 789.546 1271.47 797.027C1272.18 797.958 1272.83 799.577 1273.82 799.95C1278.64 801.765 1283.5 803.664 1288.44 804.734C1293.47 805.824 1296.17 801.586 1299.57 799.173C1300.86 798.263 1301.68 796.741 1302.9 795.727C1304.16 794.686 1305.65 793.927 1308.02 792.421C1307.41 800.982 1309.37 807.89 1312.24 814.765C1313.29 817.299 1314.68 818.783 1317.09 819.132C1320.79 819.667 1322.79 821.868 1323.88 825.382C1324.51 827.412 1325.18 829.529 1326.31 831.333C1329.19 835.945 1328.49 839.622 1325.15 842.859C1321.84 846.073 1319.72 850.655 1314.1 851.169C1312.92 851.276 1311.96 854.232 1311.49 856.087C1310.22 861.116 1310.36 861.259 1305.17 861.514C1303.01 861.621 1301.46 862.241 1300.09 863.914C1299.19 865.02 1297.5 865.907 1296.03 865.976C1290.2 866.248 1290.18 866.114 1287.29 869.086L1265.17 869.42C1264.71 870.065 1264.42 870.317 1264.31 870.648C1262.07 877.132 1260.27 878.398 1253.18 878.004C1250.78 877.869 1248.36 877.393 1245.95 877.013C1242.76 876.509 1239.69 876.188 1237.11 878.39C1235.32 879.918 1232.97 879.502 1230.76 878.699C1228.48 877.875 1226.51 877.889 1224.34 878.801C1222.45 879.598 1220.14 879.849 1217.98 879.763C1214.03 879.606 1210.16 878.278 1206.27 880.375C1203.31 881.968 1195.46 878.33 1193.55 875.286C1192.89 874.231 1192.37 872.413 1192.79 871.513C1195.54 865.687 1192.73 859.282 1193.09 853.236C1193.2 851.412 1193.08 849.478 1193.58 847.803C1195.21 842.366 1194.65 837.013 1191.22 832.016C1188.99 828.754 1188.51 825.513 1187.83 821.858C1186.92 816.945 1185.2 811.31 1181.98 807.573C1176.38 801.06 1175.74 794.42 1176.3 787.204C1176.93 779.04 1174.9 771.486 1169.68 764.521C1168.89 763.471 1168.1 762.1 1168.03 760.903C1167.56 753.902 1164.48 747.507 1162.09 740.935C1160.83 737.482 1160.05 733.893 1158.81 730.431C1157.94 727.981 1156.66 725.641 1155.04 722.117L1152.02 725.556L1146.1 719.688C1146.82 724.972 1147.26 729.496 1148.09 733.987C1149.85 743.58 1151.87 753.15 1153.68 762.74C1154.28 765.909 1154.97 768.69 1157.21 771.58C1162.37 778.243 1161.95 786.11 1162.23 793.621C1162.36 797.174 1162.04 800.815 1161.19 804.156C1159.95 809.061 1161.95 813.564 1165.08 816.647C1170 821.499 1170.26 827.115 1169.43 832.044C1167.91 841.065 1171.82 847.062 1178.85 852.032C1180.98 853.539 1181.89 855.201 1182.78 857.49C1184.54 861.988 1186.86 866.309 1188.94 870.708C1190.01 872.98 1191.03 875.274 1192.12 877.541C1193.11 879.616 1193.29 881.476 1192.12 883.414C1190.66 885.833 1191.15 888.332 1193.2 890.728C1194.08 891.768 1194.8 892.97 1195.52 894.142C1197.53 897.433 1200.35 898.851 1203.73 897.934C1206.22 897.254 1208.15 897.605 1210.44 899.384C1212.78 901.215 1215.41 902.052 1218.04 899.857C1219.05 899.016 1221.41 898.736 1222.63 899.394C1229.52 903.101 1236.31 902.065 1243.13 901.616C1244.18 901.547 1245.14 900.929 1246.32 900.497L1249.52 903.472C1249.61 904.192 1249.77 904.605 1249.68 904.918C1248.46 909.128 1247.2 913.319 1245.96 917.522C1243.49 925.89 1236.7 930.89 1231.81 937.343C1227.39 943.155 1222.53 948.621 1217.58 953.963C1210.14 962 1201.52 968.479 1190.75 971.779C1189.89 972.044 1189.05 972.543 1188.16 972.54C1180.12 972.521 1174.17 976.881 1168.22 981.002C1163.15 984.518 1157.54 987.448 1153.88 992.755C1153.39 993.464 1151.95 993.459 1150.93 993.751C1146 995.173 1141.81 997.373 1138.7 1001.75C1135.63 1006.07 1131.51 1009.57 1128.04 1013.6C1126.35 1015.57 1124.91 1017.82 1123.72 1020.15C1122.32 1022.87 1124.22 1025.17 1125.87 1027.45C1127.09 1029.14 1127.04 1030.86 1125.42 1031.87C1122.99 1033.38 1122.67 1035.72 1122.7 1038.47C1122.72 1039.9 1122.01 1041.26 1121.61 1042.63C1120.29 1047.09 1119.56 1051.4 1122.51 1056.2C1124.9 1060.09 1125.23 1064 1123.4 1068.39C1121.43 1073.11 1121.16 1078.7 1120.11 1083.89C1119.09 1088.94 1118.68 1094.31 1116.79 1098.93C1114.11 1105.49 1108.8 1109.89 1102.08 1112.06C1097.32 1113.6 1092.31 1114.76 1087.25 1115.29C1083.79 1115.66 1080.98 1116.77 1078.45 1118.78C1076.22 1120.56 1073.7 1121.63 1070.9 1122.51C1067.54 1123.57 1064.55 1125.66 1061.56 1127.55C1060.87 1127.99 1060.57 1129.39 1060.55 1130.41C1060.5 1134.33 1060.26 1138.28 1060.76 1142.2C1061.99 1151.71 1057.91 1158.73 1052.55 1165.03C1050.33 1167.63 1046.77 1168.48 1043.04 1168.07C1041.18 1167.87 1039.33 1167.45 1037.47 1167.3C1034.09 1167.02 1031.77 1168.42 1031.99 1171.78C1032.37 1177.46 1028.98 1180.93 1026.65 1185.05C1024.33 1189.15 1021.36 1192.19 1016.66 1194.05C1012.47 1195.7 1009.29 1199.46 1005.59 1202.21C1002.49 1204.52 999.384 1206.85 996.113 1208.92C992.959 1210.92 989.593 1212.6 986.324 1214.43C980.808 1217.51 975.043 1219.67 968.18 1218.71C965.635 1218.35 963.057 1218.61 960.507 1218.69C953.848 1218.91 947.628 1216.11 941.308 1213.96C938.436 1212.99 935.528 1212.92 932.654 1212.53C928.004 1211.91 923.185 1211.53 918.674 1210.33C915.219 1209.42 912.21 1205.62 909.055 1203.04C908.681 1202.74 908.323 1201.83 908.478 1201.49C909.874 1198.36 908.746 1195.37 907.641 1192.19C907.298 1191.2 908.282 1188.98 909.187 1188.7C913.035 1187.53 912.991 1184.37 911.972 1181.48C909.529 1174.53 908.9 1167.74 909.445 1160.71C909.726 1157.09 908.482 1153.47 905.742 1150.05C901.359 1144.57 900.796 1137.92 900.563 1131.44C900.482 1129.19 900.853 1126.97 900.973 1124.73C901.242 1119.71 901.09 1114.59 901.856 1109.71C902.509 1105.55 904.043 1101.6 905.514 1097.71C906.211 1095.86 906.447 1094.3 905.489 1092.37C900.879 1083.05 899.144 1073.28 898.095 1063.36C897.819 1060.75 897.003 1058.06 895.996 1055.55C894.594 1052.07 894.861 1048.93 895.68 1045.61C897.413 1038.58 900.468 1032.34 904.319 1026.48C906.176 1023.65 908.08 1020.76 909.297 1017.58C910.775 1013.73 913.505 1011.44 916.912 1009.74C923.679 1006.36 925.81 1000.46 924.786 992.764C924.383 989.742 923.809 986.713 923.629 983.7C923.532 982.09 923.602 980.065 924.472 978.988C928.471 974.04 927.058 967.96 925.807 962.379C924.467 956.397 923.201 950.8 923.867 944.661C924.288 940.794 921.88 936.164 920.22 932.044C917.674 925.73 914.436 919.636 911.972 913.301C910.582 909.726 910.005 905.862 909.387 902.107C909.205 901.003 909.794 899.369 910.621 898.76C914.738 895.729 916.251 891.266 917.316 886.319C917.928 883.465 918.995 880.775 920.477 878.352C922.625 874.893 924.07 871.221 923.987 866.988C923.942 864.704 924.314 861.864 921.009 860.716C920.688 860.603 920.223 860.215 920.18 859.935C919.216 853.697 914.297 854.29 910.277 853.296C907.515 852.614 904.746 851.955 902.013 851.124C897.379 849.713 895.625 847.479 895.234 842.784C894.356 832.239 890.139 827.557 880.099 825.206C874.558 823.91 869.297 823.636 863.694 823.741C856.52 823.877 849.565 825.163 842.385 824.999C840.932 824.967 838.812 825.337 838.122 824.542C835.653 821.696 832.058 821.192 829.472 819.121C823.403 814.261 816.859 814.134 810.206 813.876C808.728 813.818 807.195 813.746 805.802 814.053C796.977 815.986 791.234 811.106 786.723 803.651C783.675 798.611 780.899 793.444 776.422 789.358C775.402 788.426 774.786 786.637 774.582 785.217C774.078 781.718 772.451 778.894 769.513 777.006C764.17 773.575 764.292 768.373 763.633 763.353C763.169 759.824 763.335 756.046 761.961 752.823C759.238 746.44 755.936 740.199 752.279 734.234C750.6 731.495 747.888 729.439 746.886 726.062C745.553 721.566 744.918 717.533 748.578 714.308C750.684 712.452 749.511 709.758 748.852 707.428C748.341 705.613 747.242 703.914 746.449 702.257C749.572 698.685 752.591 695.274 755.565 691.821C760.038 686.628 762.465 680.238 764.298 673.547C764.61 672.409 763.997 670.948 763.968 669.65C763.938 668.374 763.651 666.741 764.272 665.913C766.781 662.57 766.372 658.666 765.885 654.691L763.215 653.294C764.49 647.754 765.825 642.485 770.954 639.528C771.958 638.949 772.601 637.703 773.248 636.65C775.915 632.319 779.753 629.469 784.798 628.679C787.871 628.197 789.099 626.582 789.569 623.777C789.812 622.329 790.101 620.859 790.643 619.538C792.251 615.632 794.65 612.77 799.538 613.15C803.194 613.434 805.753 612.394 806.585 608.213C807.321 604.508 810.356 603.338 814.165 603.791C824.196 604.986 831.896 601.085 838.033 594.085C838.869 593.13 839.039 591.514 839.381 590.156C839.735 588.747 839.446 586.839 840.262 585.914C844.157 581.498 846.954 576.056 853.25 573.952C857.83 572.42 862.177 570.423 867.116 569.803C868.238 569.662 869.294 568.735 870.143 567.917C872.947 565.212 875.58 562.327 878.394 559.632C881.628 556.537 883.606 556.864 885.503 561.261C886.931 564.572 888.98 565.992 892.236 566.897C896.116 567.978 900.119 568.353 903.765 571.362C905.463 572.763 909.01 571.959 911.662 571.799C913.802 571.668 915.863 571.023 917.949 570.573C919.488 570.241 921.18 570.143 922.505 569.434C926.018 567.552 929.638 567.576 933.7 568.602C939.731 570.126 945.824 571.397 951.91 572.288C955.555 572.822 958.812 573.608 961.831 576.22C962.978 577.212 964.939 577.896 966.329 577.742C970.104 577.323 973.47 578.257 977.134 579.818C981.43 581.647 985.776 584.047 990.698 583.119C992.302 582.816 994.564 584.251 996.321 585.297C998.204 586.415 999.848 588.013 1002.42 590.057C1003.52 592.992 1000.66 594.611 998.238 596.584C1001.24 602.43 998.848 605.936 994.621 608.918C990.315 611.957 990.405 612.149 994.458 617.114C996.443 619.548 998.389 622.073 1000.67 624.192C1003.39 626.709 1006.34 628.659 1010.15 629.381C1013.16 629.953 1016.18 631.757 1018.98 633.443C1022.32 635.462 1024.45 638.388 1024.33 642.516C1024.23 645.976 1026.08 648.321 1029.38 649.515C1034.82 651.484 1039.21 654.821 1042.45 659.886C1043.27 661.168 1044.48 662.423 1045.76 663.188C1050.36 665.925 1054.47 663.327 1054.02 658.099C1053.92 656.974 1053.65 655.847 1053.47 654.764C1057.27 650.232 1061.74 648.754 1068.04 649.832C1074.02 650.856 1078.3 653.302 1081.49 658.6C1082.05 659.514 1083.15 660.159 1084.07 660.82C1085.17 661.613 1086.51 662.111 1087.46 663.045C1093.44 668.909 1100.82 672.393 1107.63 676.839C1110.88 678.963 1114.24 680.93 1117.3 683.332C1119.4 684.979 1121.3 685.564 1123.55 684.846C1124.07 684.681 1124.6 684.574 1125.11 684.396C1131.54 682.155 1136.94 684.228 1141.78 689.733C1145.15 693.56 1149.75 694.344 1154.21 694.929C1156.93 695.286 1158.49 693.336 1159.68 691.281C1163.19 685.266 1166.48 679.135 1170.41 673.364C1173.1 669.419 1173.52 663.754 1174.94 658.847C1175.28 657.649 1175.54 656.418 1175.79 655.429C1173.15 654.322 1170.98 653.049 1168.71 652.559C1166.44 652.066 1163.9 651.838 1161.78 652.391C1155.9 653.928 1153.51 653.145 1149.32 647.669C1148.02 645.96 1146.58 644.204 1144.87 642.983C1142.58 641.35 1140.28 639.482 1137.37 641.938C1135.37 643.629 1132.6 643.205 1130.39 640.59C1128.9 638.82 1127.29 637.096 1125.54 635.611C1124.41 634.658 1122.95 634.028 1121.57 633.527C1119.83 632.892 1118 632.535 1116.1 632.026C1115.8 629.558 1115.72 627.478 1115.23 625.46C1114.85 623.887 1114.24 622.169 1113.23 620.903C1110.19 617.077 1110.1 617.15 1114.55 614.233C1113.83 611.102 1112.59 607.793 1112.5 604.568C1112.44 602.512 1114.07 600.581 1115.12 598.189C1113.07 596.884 1110.44 595.052 1107.68 593.492C1104.9 591.927 1102.2 589.691 1099.1 592.588C1098.2 593.428 1095.67 592.497 1093.3 592.336C1093.57 594.11 1093.85 595.522 1094 596.937C1094.13 598.215 1094.15 599.494 1094.19 600.769C1094.22 602.141 1094.11 603.51 1094.26 604.878C1094.36 605.807 1095.12 606.821 1095 607.646C1094.72 609.548 1094.54 611.818 1093.39 613.006C1092.84 613.572 1090.13 612.129 1088.49 611.36C1087.75 611.014 1087.22 610.094 1086.02 608.827C1088.69 616.122 1088.49 620.173 1085.65 623.43C1084.26 622.423 1082.97 621.127 1081.46 620.45C1076.01 618.009 1076.18 618.094 1075.78 612.302C1075.57 609.169 1074.83 605.955 1073.88 602.876C1072.53 598.464 1070.76 594.147 1069.19 589.78C1068.75 588.522 1068.68 587.067 1067.98 585.988C1066.39 583.558 1066.5 581.313 1067.27 578.941C1069.53 571.943 1067.46 565.705 1062.25 559.969C1060.95 558.532 1060.02 556.755 1058.73 555.299C1056.96 553.302 1054.95 551.532 1053.17 549.538C1050.99 547.074 1048.1 544.73 1047.04 541.885C1045.62 538.08 1042.92 535.22 1041.2 531.797C1038.47 526.389 1034.84 524.397 1029.17 525.996C1028.92 526.629 1028.76 527.832 1028.1 528.554C1026.31 530.518 1026.72 532.501 1028.18 534.684C1031.02 538.91 1033.49 543.066 1034.47 548.264C1035.27 552.53 1038.89 556.07 1042.73 558.551C1044.77 559.866 1046.54 560.648 1046.85 563.589C1047.01 565.026 1048.97 566.71 1050.43 567.828C1054.25 570.754 1057.38 574.236 1059.75 578.374C1061.35 581.168 1060.93 581.911 1057.82 583.39L1050.92 577.361C1048.6 578.587 1047.32 579.5 1047.91 582.253C1049.07 587.73 1044.97 593.808 1039.64 593.657C1035.26 593.533 1032.85 594.353 1032.12 599.023C1031.65 601.991 1029 602.288 1026.6 600.022C1022.74 596.384 1018.97 592.642 1015.31 588.8C1014.54 587.991 1013.84 585.747 1014.18 585.481C1015.15 584.704 1016.7 584.113 1017.95 584.341C1019.53 584.627 1021 586.113 1022.61 586.521C1027.34 587.725 1032.11 588.653 1036.42 589.589C1041.21 586.776 1040.4 582.226 1040.2 577.941C1040.18 577.416 1040 576.69 1039.64 576.366C1034.92 572.164 1032.32 566.422 1028.47 561.601C1027.99 561.004 1027.38 560.488 1026.75 560.046C1018.03 553.847 1012.88 545.414 1009.96 535.396C1009.23 532.88 1007.69 530.406 1006.09 528.213C1003.34 524.444 1002.55 524.354 998.552 525.98C998.385 526.048 998.247 526.214 998.077 526.223C993.285 526.489 988.635 527.13 984.085 528.525C982.751 528.933 980.46 526.754 978.573 525.847C974.962 524.111 971.416 521.926 967.676 520.879C963.902 519.821 961.856 521.475 960.831 524.375C959.94 526.891 959.468 530.373 957.581 531.485C954.337 533.399 950.182 534.799 946.329 534.567C942.163 534.315 939.44 535.362 936.755 537.999C934.495 540.22 931.665 541.844 928.874 543.889L929.453 549.679C926.622 551.642 922.648 552.628 921.502 556.743C921.39 557.143 920.655 557.36 920.155 557.538C919.653 557.718 919.034 557.642 918.556 557.856C911.572 560.986 904.492 561.248 896.681 557.837C893.611 556.496 889.825 556.919 886.43 557.023C883.108 557.125 881.45 555.262 880.577 552.488C878.842 546.972 875.453 544.085 869.831 543.414C867.587 543.146 865.363 541.62 862.744 540.5C863.465 537.56 864.249 535.304 864.523 532.935C864.722 531.213 864.735 529.125 863.956 527.587C862.59 524.889 863.481 523.333 865.006 521.613C867.356 518.966 869.572 516.191 871.835 513.462C872.289 512.914 872.93 512.414 873.099 511.753C874.749 505.289 876.317 498.797 878.115 491.469C880.537 490.749 883.891 489.693 887.299 488.799C887.878 488.647 888.895 488.975 889.369 489.443C892.234 492.261 895.949 492.369 899.256 493.761C907.749 497.336 916.189 501.08 924.675 504.678C929.103 506.556 930.087 506.159 932.081 502.262C933.381 499.706 934.704 497.164 936.049 494.636C937.54 491.849 938.276 488.906 937.383 485.512C935.268 477.468 932.244 469.96 924.05 465.941C919.894 463.902 920.407 460.495 920.02 456.43C923.708 456.927 927.238 456.94 930.552 457.981C933.844 459.016 936.921 461.085 940.712 463.019L942.852 456.116C945.203 455.518 947.358 455.454 948.896 458.455C949.279 459.202 950.301 459.776 951.127 460.19C954.578 461.921 964.552 459.563 966.952 456.831C968.02 455.614 969.618 454.675 971.199 454.199C973.754 453.432 976.471 453.059 979.161 452.689C984.208 451.995 988.661 450.509 991.287 445.79C991.896 444.696 993.002 444.027 994.96 444.491C997.191 445.02 999.581 443.961 1001.93 444.087C1005.33 444.271 1008.71 445.712 1012.06 443.874C1013.11 443.297 1015.48 444.922 1017.8 445.733C1021.1 444.63 1022.05 441.922 1020.55 437.69C1019.72 435.362 1019.52 432.862 1019.04 430.467C1020.1 428.654 1021.02 426.697 1022.28 425.021C1023.84 422.94 1025.22 420.654 1028.73 421.117C1030.39 421.337 1032.03 419.801 1033.79 419.682C1035.48 419.568 1037.8 419.671 1038.95 420.722C1040.72 422.349 1039.19 424.091 1038.17 425.603C1037.21 427.048 1036.47 428.662 1035.58 430.164C1034.77 431.52 1034.09 433.042 1033 434.107C1029.58 437.419 1029.6 441.704 1033.26 445.282C1034.62 446.62 1035.95 448.023 1037.42 449.216C1037.86 449.567 1038.75 449.299 1039.88 449.325C1038.34 446.863 1034.74 445.007 1038.33 442.275C1039.04 441.734 1038.23 439.232 1038.11 437.462C1039.32 436.431 1040.2 435.113 1042.68 436.123C1044.4 436.822 1046.67 436.37 1048.48 435.841C1049.44 435.56 1050.24 434.136 1050.54 433.016C1050.8 432.057 1050.4 430.744 1050 429.676C1047.44 422.833 1044.79 416.013 1041.91 408.513C1038.2 409.396 1034.01 410.251 1029.93 411.397C1023.21 413.286 1016.32 411.006 1012.92 405.531C1012.41 404.705 1011.63 403.671 1011.73 402.91C1012.74 395.033 1010.13 386.602 1013.18 378.991C1014.18 376.494 1015.29 374.861 1018.04 374.934C1023.45 375.076 1028.44 373.691 1033.54 372.578C1036.05 372.032 1038.94 372.748 1041.66 372.844C1043.11 372.894 1044.7 373.195 1045.97 372.768C1049.48 371.598 1052.86 370.134 1056.26 368.727C1058.06 367.983 1059.78 367.104 1061.55 366.308C1062.2 366.015 1063.41 365.925 1063.47 365.506C1064.21 360.929 1069.23 361.79 1071.47 359.16C1071.91 358.644 1072.63 358.058 1073.25 358.088C1079.34 358.396 1082.77 354.1 1087.01 351.149C1087.98 350.472 1089.4 349.743 1090.49 349.998C1096.35 351.369 1099.93 347.172 1104.44 345.421C1107.8 344.113 1109.15 343.284 1111.73 345.828C1113.39 347.458 1114.75 347.938 1116.71 347.724C1117.81 347.612 1118.94 347.766 1120.02 348.174C1122.91 349.295 1125.31 349.049 1127.94 347.719C1129.66 346.849 1132.24 346.76 1134.27 347.32C1146.06 350.578 1157.58 354.874 1168.62 360.763C1172.95 363.073 1173.29 363.676 1172.93 367.665C1183.2 373.981 1193.11 380.52 1203.39 386.24C1210.83 390.376 1217 396.012 1223.3 401.603C1224.58 402.74 1225.79 404.218 1226.48 405.75C1228.13 409.461 1226.88 411.824 1223.23 412.881C1218.75 414.183 1214.18 414.249 1209.56 412.31C1203.25 409.66 1197 406.826 1190.78 404.102C1191.41 405.362 1193.89 406.808 1192.28 409.265C1191.88 409.89 1193.61 411.845 1193.87 413.233C1194.88 418.69 1199.07 420.994 1204.47 424.073C1202.85 422.028 1201.77 421.07 1201.25 419.903C1200.76 418.8 1200.31 416.988 1200.82 416.367C1201.57 415.468 1203.26 414.814 1204.46 415.054C1206 415.365 1207.52 416.544 1208.91 417.559C1212.18 419.937 1215.36 422.442 1219.16 425.341C1217.28 418.54 1217.74 418.081 1223.99 418.107C1225.94 418.116 1227.79 417.32 1229.73 417.081C1231.66 416.843 1233.64 416.698 1235.61 416.778C1237.41 416.851 1239.23 417.283 1241.85 417.676C1240.08 414.436 1239.34 412.041 1240.68 409.242C1241.41 407.723 1240.19 405.092 1239.85 402.978C1248.13 403.132 1254.15 406.033 1257.8 412.304L1250.14 414.318C1253.07 416.635 1255.53 418.766 1258.16 420.589C1259.98 421.842 1262.04 421.875 1262.75 419.633C1263.72 416.606 1266.07 416.763 1268.51 416.979C1275.17 417.568 1281.8 418.635 1288.34 417.193C1289.87 416.862 1291.5 416.978 1293.06 417.529C1294.62 418.08 1296.04 419.044 1297.17 420.315C1299.22 422.602 1301.63 423.258 1304.26 423.728C1309.98 424.747 1315.73 425.578 1321.39 427.003C1324.18 427.703 1326.8 429.554 1330.18 431.224C1329.79 429.713 1329.52 428.903 1329.39 428.084C1328.9 425.023 1329.42 424.262 1332.43 424.68C1338.61 425.541 1344.7 427.198 1350 431.167C1356.57 436.094 1362.92 441.361 1369.4 446.437C1371.17 447.83 1373.06 449.065 1374.9 450.372L1375.77 449.257C1372.99 446.606 1370.3 443.837 1367.39 441.353C1365.82 440.012 1364.76 438.792 1364.29 436.679C1363.62 433.628 1362.31 430.658 1361.01 426.87C1361.84 424.297 1365.01 423.888 1367.85 423.533C1369.3 415.949 1370.7 415.061 1378.3 416.655C1379.41 416.886 1380.5 417.296 1381.58 417.703C1388.12 420.179 1393.05 423.496 1390.19 432.8L1394.6 435.907C1394.93 437.535 1395.2 439.173 1395.6 440.789C1396.25 443.391 1397.29 445.972 1397.61 448.576C1397.97 451.505 1398.94 453.923 1400.62 456.532C1403.79 461.451 1404.03 466.965 1398.25 468.998C1396.37 469.659 1394.74 470.907 1392.75 472.025C1396.71 475.111 1400.11 475.957 1403.82 474.822C1408.25 473.465 1409.84 469.603 1408.25 464.945C1407.55 462.896 1407.86 460.587 1407.69 458.015C1402.78 457.16 1400.21 452.825 1399.91 448.239C1399.61 443.263 1396.87 439.827 1394.48 435.968ZM1112.21 443.295C1110.79 444.622 1110.12 443.058 1110.02 442.183C1109.92 441.263 1110.34 439.873 1111.01 439.487C1114.36 437.581 1117.54 435.627 1121.95 435.608C1128.41 435.58 1134.49 436.147 1140.24 440.241C1141.34 441.025 1142.61 441.714 1143.86 442.035C1145.2 442.379 1146.7 442.519 1147.97 442.239C1149.9 441.816 1151.7 440.954 1154.33 439.996C1152.47 438.445 1151.03 436.422 1149.37 436.014C1143.5 434.576 1137.49 432.918 1131.65 432.793C1124.2 432.631 1117.88 430.971 1112.32 424.91C1110.33 422.741 1109.44 421.062 1109.83 418.378C1110.11 416.465 1110.19 414.283 1109.57 412.41C1107.83 407.069 1109.37 402.473 1114.09 400.669C1116.09 399.905 1118.21 399.393 1120.33 398.907C1125.6 397.691 1130.14 395.056 1135.11 393.048C1131.06 387.05 1122.58 384.951 1115.91 387.838L1115.02 393.277C1108 394.601 1100.97 396.3 1093.76 397.148C1089.16 397.691 1087.84 400.689 1086.96 404.32C1086.17 407.597 1086.11 410.794 1089.41 413.677C1091.09 415.145 1092.22 417.43 1093.26 419.495C1093.68 420.345 1093.65 422.077 1093.1 422.567C1090.37 424.966 1088.07 428.426 1083.73 427.951C1079.45 427.485 1078.29 429.765 1077.14 433.304C1075.65 437.909 1073.53 442.366 1069.78 445.543C1068.87 445.295 1068.14 445.12 1067.41 444.897C1064.49 444 1061.55 442.667 1059.9 446.517C1059.61 447.194 1057.59 447.406 1056.48 447.115C1054.51 446.597 1052.62 445.531 1050.72 444.703L1048.89 439.136L1043.67 448.12C1046.16 448.991 1048.97 449.245 1050.75 450.783C1052.84 452.602 1054.05 455.53 1055.78 458.182C1060.35 458.249 1064.94 458.131 1069.55 458.433C1073.98 458.724 1078.44 459.333 1082.87 460.07C1083.95 460.249 1085.06 461.36 1085.98 462.243C1087.73 463.935 1091.45 464.952 1093.28 464.067C1095.51 462.997 1097.74 461.932 1099.31 461.177C1101.05 456.719 1102.52 452.706 1104.19 448.796C1105.17 446.481 1107.03 445.089 1109.72 445.26C1111.29 445.361 1111.97 444.656 1112.21 443.28C1114.99 446.413 1117 450.332 1120.69 452.622C1125.26 446.597 1125.24 446.322 1121.15 443.636C1117.48 443.497 1114.84 443.397 1112.21 443.295ZM1190.06 580.707C1188.26 584.191 1186.71 584.967 1183.18 583.094C1179.85 581.326 1177.11 580.537 1173.81 582.462C1171.09 584.054 1168.64 582.329 1168.54 578.984C1168.47 577.062 1167.93 575.852 1166.6 574.461C1163.47 571.18 1163.55 571.104 1166.77 567.753C1163.64 566.467 1160.74 565.063 1159.74 561.375C1159.54 560.656 1157.95 560.035 1156.93 559.649C1153.3 558.277 1150.84 559.945 1148.07 561.825C1146.06 563.189 1144.8 564.722 1143.49 566.672C1142.36 568.356 1138.98 568.65 1138.35 570.371C1136.16 576.448 1130.17 579.083 1127.64 584.052C1128.43 586.925 1128.73 589.632 1129.91 591.935C1131.2 594.427 1133.32 596.539 1135.11 598.873C1132.65 601.551 1130.1 600.063 1127.68 599.129C1126.1 598.518 1124.47 597.214 1123.69 600.111C1125.85 600.865 1127.97 601.866 1130.13 602.273C1131.7 602.571 1134.13 602.735 1134.82 601.833C1137.63 598.152 1141 599.771 1144.31 601.296C1147.24 602.646 1149.79 602.955 1152.88 602.254C1160.05 600.628 1167.53 602.136 1174.91 603.747C1175.9 603.964 1176.8 604.98 1177.74 605.613C1183.38 609.389 1188.12 614.376 1193.87 618.152C1198.36 621.102 1203.3 621.994 1207.76 624.675C1210.45 626.293 1217.86 624.087 1218.94 622.281C1220.42 619.797 1219.04 615.332 1215.65 611.274C1211.02 605.741 1206.9 599.784 1201.7 594.734C1199.16 592.275 1196.5 589.917 1194.24 587.224C1192.95 585.693 1191.4 583.303 1191.67 581.781C1192.17 578.944 1195.1 581.377 1196.81 580.98C1198.8 578.186 1200.84 575.481 1198.35 571.089C1192.14 572.63 1184.94 567.263 1179.24 571.194C1179.75 578.659 1187.38 576.344 1190.06 580.707ZM1102.48 962.445C1100.23 960.888 1098.74 960.353 1098.1 959.324C1095.26 954.804 1091.1 955.711 1087.45 955.711C1084.99 955.71 1082.39 956.846 1081.6 959.665C1080.54 963.458 1079.69 967.331 1078.81 970.939L1088.21 974.929L1102.48 962.445ZM1264.61 784.374C1268 782.946 1268 782.945 1265.29 779.519L1264.61 784.374ZM1943.17 700.412C1942.75 696.431 1942.75 696.431 1939.98 695.885L1943.17 700.412ZM226.122 508.905C229.338 513.25 234.363 514.441 239.301 514.529C244.556 514.623 249.229 516.51 253.877 518.908C254.992 519.483 255.871 520.74 256.727 521.79C258.398 523.842 259.979 525.97 262.154 528.789C261.672 531.993 261.389 536.176 258.255 539.339C256.809 540.8 256.065 542.996 255.067 544.898C253.481 547.917 252.065 551.044 250.368 553.988C246.625 560.486 244.938 567.044 250.863 574.311C252.35 576.134 253.345 578.39 254.94 580.087C257.754 583.081 261.051 584.904 265.135 584.125C267.26 583.719 269.496 583.694 271.695 583.571C279.244 583.148 287.461 590.475 288.645 599.197C291.943 597.426 295.235 596.02 298.084 594.007C300.18 592.528 302.186 590.546 303.329 588.254C304.411 586.081 305.857 585.033 307.96 584.275C312.545 582.623 317.014 581.713 322.351 582.935C325.993 583.769 330.644 583.501 333.521 581.717C337.31 579.367 339.903 580.806 343.186 582.629C343.423 587.455 340 587.838 336.404 588.375L336.481 592.744C341.419 590.097 347.514 592.167 351.353 586.894L353.826 592.916C357.452 593.757 360.448 595.503 361.807 599.991C362.323 601.697 364.952 603.311 366.894 604.268C371.185 606.387 375.493 607.893 379.013 611.92C381.853 615.17 386.057 616.482 390.361 614.818C391.879 614.231 393.962 614.379 395.68 614.842C399.139 615.774 402.524 617.152 405.765 618.285C407.425 620.826 401.119 622.374 406.171 625.348L409.744 619.869C412.057 620.129 414.655 620.06 415.632 623.152C416.284 625.215 414.198 627.111 410.425 628.32C411.329 630.177 412.713 632.005 412.985 633.882C413.232 635.596 412.271 637.365 411.841 639.121C414.086 640.764 416.219 642.456 418.47 643.944C422.371 646.528 424.5 650.279 425.129 654.539C425.68 658.274 427.505 661.139 429.425 664.339C432.682 669.766 436.506 673.285 442.689 674.409C447.142 675.218 451.326 677.435 454.816 680.913C455.618 681.711 456.743 682.203 457.759 682.747C461.112 684.541 463.84 686.79 465.021 690.705C465.505 692.308 466.428 694.073 467.642 695.22C472.204 699.533 472.656 704.883 472.572 710.115C472.498 714.715 472.84 719.049 474.723 723.523C475.472 725.302 475.412 727.661 474.97 729.498C473.458 735.794 474.819 739.195 480.558 742.447C481.735 743.115 482.821 743.977 484.251 744.956L484.839 749.903C489.509 749.623 493.015 752.228 496.321 755.432C497.877 756.943 499.523 758.352 501.248 759.651C505.986 763.21 509.9 767.206 509.439 773.871C515.049 773.297 518.841 776.324 522.51 779.625C527.007 783.672 531.896 786.498 537.791 787.336C539.819 787.626 542.153 788.95 543.725 790.473C548.247 794.857 551.995 799.886 554.689 805.619C556.658 809.809 559.387 813.393 563.716 815.317C570.857 818.493 572.782 824.169 572.883 831.169C573.017 840.501 569.68 848.309 564.294 854.786C560.718 859.086 555.847 862.394 551.056 865.393C548.625 866.915 546.523 868.508 544.591 870.596C542.317 873.055 539.894 875.649 536.944 877.104C533.176 878.966 530.545 882.024 529.341 885.531C527.794 890.04 527.68 895.266 527.482 900.26C527.385 902.696 527.659 904.867 526.189 907.037C524.625 909.343 524.079 912.395 522.881 915.006C522.001 916.921 520.766 918.636 519.723 920.462C518.688 922.271 517.025 923.966 516.81 925.963C516.185 931.797 512.867 935.612 508.904 938.929C506.645 940.821 504.81 942.604 504.517 945.94C504.37 947.603 503.314 949.641 501.985 950.407C499.419 951.887 496.378 952.519 494.385 955.023C493.925 955.602 492.339 955.37 491.275 955.237C489.795 955.053 488.319 954.624 486.843 954.281C480.163 952.738 473.644 952.064 467.131 953.846C463.554 954.825 459.363 954.028 455.729 954.895C443.498 957.813 443.11 960.45 441.499 974.012C441.348 975.281 441.83 976.684 441.722 977.97C441.269 983.357 439.947 988.023 434.355 990.081C430.844 991.373 427.862 993.476 426.58 997.608C425.48 1001.15 423.787 1001.38 419.558 999.734C416.734 1002.95 413.94 1006.05 411.739 1010.12C408.037 1016.98 403.109 1023.24 396.282 1027.44C393.872 1028.92 391.773 1029.49 388.658 1027.58C382.178 1023.62 375.385 1020.26 367.488 1015.98C369.061 1017.71 369.602 1018.55 370.343 1019.07C374.376 1021.88 376.671 1025.38 376.272 1030.32C376.18 1031.46 376.765 1033.04 377.558 1033.98C379.93 1036.77 379.29 1039.31 378.149 1041.88C377.713 1042.88 377.175 1043.82 376.544 1044.69C374.782 1047.08 373.468 1050.63 371.024 1051.5C366.778 1053.01 362.094 1054.05 356.968 1052.2C352.194 1050.49 347.201 1049.63 342.599 1048.46L342.38 1063.1C335.748 1068.52 329.678 1062.54 322.841 1058.74C323.386 1061.91 323.613 1064.48 324.351 1066.94C324.669 1068 325.926 1069.06 326.975 1069.69C328.105 1070.37 329.602 1070.32 330.744 1070.98C332.779 1072.17 333.848 1074.18 333.306 1076.33C332.761 1078.5 331.003 1078.85 328.886 1077.9C328.367 1077.67 327.818 1077.52 327.177 1077.3C326.149 1081.24 323.858 1084.66 324.95 1089.26C325.152 1090.12 323.553 1091.64 322.424 1092.2C320.22 1093.3 317.776 1093.97 315.399 1094.74C311.651 1095.95 310.382 1098.9 312.584 1102.55C314.598 1105.89 316.926 1109.03 320.441 1111.18C325.973 1114.57 326.391 1120.64 321.463 1123.87C320.432 1124.55 319.193 1124.92 318.079 1125.48C317.288 1125.87 316.268 1126.15 315.824 1126.82C313.333 1130.62 310.562 1134.3 308.717 1138.46C307.126 1142.06 309.211 1146 311.529 1149.11C313.893 1152.28 315.059 1155.49 315.574 1159.16C315.853 1161.03 316.528 1162.85 317.55 1164.5C320.787 1169.67 324.304 1174.61 329.376 1178.29C332.627 1180.66 335.59 1183.47 339.268 1186.57C335.032 1188.23 331.782 1186.23 328.604 1184.98C323.819 1183.09 319.111 1180.93 314.385 1178.85C312.639 1178.09 310.811 1177.4 309.238 1176.32C307.154 1174.89 308.538 1172.84 308.18 1171.1C307.776 1169.13 306.764 1167.09 305.551 1165.39C302.891 1161.69 302.771 1161.77 303.794 1158.01C302.23 1156.16 300.552 1156.54 298.765 1157.16C290.563 1159.98 286.359 1158.4 282.076 1149.95C280.059 1145.97 276.735 1142.14 277.946 1137.1C278.311 1135.57 277.195 1133.33 276.306 1131.63C272.88 1125.07 272.239 1118.01 270.511 1111.15C270.327 1110.42 270.028 1109.46 270.308 1108.94C273.635 1102.73 270.453 1096.06 269.439 1089.66C268.773 1085.46 267.958 1081.42 268.853 1077.37C269.045 1076.47 269.17 1075.54 269.228 1074.61C269.566 1069.61 270.051 1064.63 270.125 1059.6C270.167 1056.81 269.679 1053.92 269.081 1051.11C268.838 1049.97 267.776 1048.19 266.909 1047.98C262.184 1046.83 262.165 1043.09 262.012 1039.82C261.76 1034.36 261.614 1028.84 262.186 1023.51C262.776 1018.02 262.172 1012.61 261.07 1007.14C260.587 1004.74 260.835 1003.03 262.381 1001.07C263.929 999.113 264.308 996.137 265.117 993.572C265.982 990.826 266.326 987.776 267.643 985.326C270.784 979.489 272.374 973.178 272.571 966.339C272.72 961.117 272.58 955.856 272.798 950.646C272.897 948.287 273.54 946.006 273.976 943.7C274.148 942.797 274.704 941.933 274.628 941.043C273.91 932.674 277.716 925.778 279.492 918.224C280.239 915.048 280.484 911.7 280.928 908.423C281.053 907.507 280.989 906.542 281.161 905.644C284.163 890.084 287.643 874.647 289.988 858.921C290.96 852.402 292.753 845.215 288.49 838.431C284.013 831.305 279.798 823.916 273.179 818.353C269.575 815.325 266.082 812.142 262.383 809.25C258.344 806.093 257.606 801.27 255.482 797.213C253.558 793.538 251.407 789.543 252.396 785.21C252.47 784.889 252.308 784.438 252.143 784.094C247.723 774.884 247.83 765.02 245.364 755.531C245.024 754.224 244.917 752.746 244.202 751.657C239.361 744.282 240.464 735.763 237.418 728.016C235.501 723.146 234.706 717.982 229.94 714.466C228.003 713.038 227.26 710.981 228.204 708.364C228.873 706.508 228.722 703.952 228.098 701.888C226.745 697.415 228.211 694.57 231.55 692.477C234.229 690.798 236.98 689.23 239.652 687.546C241.134 686.613 241.134 685.429 239.945 683.809C235.216 677.358 236.119 671.223 240.653 665.876C243.162 662.918 247.655 661.087 247.323 655.616C247.186 653.337 249.932 652.719 252.017 653.179C256.109 654.082 258.422 653.171 259.804 648.97C260.617 646.498 262.969 644.682 266.187 643.884C270.425 642.834 273.34 639.281 275.248 635.432C277.153 631.589 278.145 627.217 279.676 623.145C281.709 617.736 280.88 612.161 279.256 606.486C277.983 602.038 278.008 602.033 279.928 597.703L273.179 589.82L265.76 592.882C265.581 593.61 265.211 594.299 265.28 594.991C265.488 597.067 265.196 599.069 263.018 599.231C260.653 599.409 257.773 598.941 256.715 596.178C255.14 592.064 252.117 590.147 248.53 588.3C245.024 586.495 242.206 583.814 241.421 579.507C240.569 574.831 236.89 571.831 233.663 568.83C228.821 564.329 228.054 560.777 232.118 556.4C233.135 555.304 235.198 555.223 237.216 554.523C237.126 554.891 237.366 554.509 237.255 554.251C236.881 553.378 236.382 552.548 235.961 551.757C229.771 552.697 228.039 551.621 227.279 545.278C226.813 541.386 224.795 538.377 222.785 535.304C222.049 534.179 220.409 533.281 219.074 532.911C213.964 531.495 210.564 527.532 206.905 524.024C205.925 523.085 205.706 521.316 204.979 519.543C197.033 518.876 193.612 512.965 190.739 506.13C189.324 502.762 187.129 499.651 185.181 496.484C183.257 493.362 180.447 491.926 177.015 491.773C174.988 491.682 172.952 491.439 170.921 491.285C167.06 490.994 163.54 489.507 160.415 486.962C154.784 482.377 149.228 477.691 143.636 473.055C139.526 469.649 136.539 465.252 133.071 461.314C128.216 455.801 122.513 451.079 119.127 444.36C112.884 440.594 113.923 434.896 114.142 429.535C114.189 428.405 115.17 427.185 116.08 426.443C120.94 422.479 120.664 417.073 119.009 411.223C118.328 408.812 117.366 406.42 116.981 403.99C115.818 396.635 113.083 389.894 108.427 383.784C106.624 381.418 105.741 379.114 107.538 376.515C108.118 375.676 108.044 374.061 107.752 372.882C106.694 368.615 104.82 364.501 105.323 360.003C105.488 358.531 104.419 356.649 103.573 355.125C100.123 348.903 100.152 342.707 101.44 336.435C102.028 333.575 103.554 330.259 102.557 327.873C101.604 325.597 97.9236 324.257 95.5037 322.548C90.0251 326.845 88.2302 333.205 90.87 339.894C92.3404 343.621 93.2544 347.133 92.4846 350.999C92.1103 352.875 92.9792 355.105 93.1366 357.17C93.4541 361.317 93.8111 365.472 93.8917 369.603C94.0152 375.916 93.3495 382.19 96.0841 388.486C97.399 391.514 97.4163 394.543 95.1562 396.825C94.5386 397.448 93.3289 397.462 91.9645 397.889C91.5028 396.005 91.1922 394.564 90.7947 393.141C89.8127 389.632 89.0689 386.156 85.9168 383.426C82.3487 380.338 82.2211 378.642 84.0602 374.408C86.5945 368.577 85.9238 367.86 80.7871 363.33C78.0582 360.924 76.2497 357.018 74.8414 353.522C73.8544 351.072 75.7299 349.172 78.3888 348.596C82.3649 347.737 83.1679 346.505 82.2944 342.527C82.1293 341.776 81.984 340.972 81.6066 340.309C78.2893 334.494 79.2863 329.057 80.5155 323.277C81.8449 317.026 82.4728 310.45 82.5046 303.918C82.5323 298.126 78.9555 293.369 74.1296 290.034C68.6477 286.245 68.6098 286.484 69.9353 280.402C71.0629 275.226 71.6247 269.844 73.0433 264.786C74.2796 260.38 75.7079 256.186 74.1094 251.306C73.884 250.618 73.9508 249.736 74.182 249.082C76.2085 243.376 77.3582 237.142 83.2431 233.953C85.5494 232.703 88.2101 231.068 89.2203 228.803C92.1629 222.212 98.2773 219.51 103.537 215.705C110.729 210.501 118.338 205.768 124.935 199.889C129.752 195.596 133.224 189.779 137.484 184.404C136.076 181.663 134.8 179.283 133.621 176.863C131.587 172.685 130.396 168.563 133.477 164.689L143.911 169.415L144.598 168.712C143.946 167.79 143.448 166.674 142.62 165.979C138.869 162.822 137.962 160.9 140.673 158.044C144.287 154.235 145.166 149.378 145.644 144.465C146.165 139.115 148.265 135.509 153.475 133.765C153.152 132.129 152.828 130.68 152.593 129.225C152.416 128.132 151.997 126.879 152.297 125.96C154.034 120.612 154.095 120.638 151.894 114.635C152.609 113.923 153.48 113.118 154.281 112.244C155.991 110.382 155.721 107.746 153.282 106.856C148.865 105.244 148.181 101.738 147.65 98.1304C147.031 93.9162 145.459 90.973 141.138 88.9492C135.069 86.1074 129.859 81.4572 123.438 78.9714C119.282 77.3626 116.049 73.473 114.305 68.6516L102.17 68.3192C100.752 72.0861 97.6409 72.8844 93.5438 72.407C87.0611 71.6513 80.5721 71.398 74.0855 70.8056C72.8551 70.6932 71.6171 69.9886 70.3777 69.5553C71.264 66.6099 71.264 66.6099 76.9407 64.0376C75.3043 63.7918 74.3647 63.4974 73.4782 63.5409C68.5144 63.7901 63.4255 63.6167 58.6339 64.5106C37.6879 68.4102 15.8589 66.6664 -5.37675 68.6469C-7.01109 68.7994 -8.61954 69.0849 -10.2326 69.3399C-14.097 69.9479 -17.8132 69.9588 -21.3619 66.931C-22.5584 65.9096 -24.3103 65.5876 -25.8239 63.8455C-23.9564 63.9139 -22.0763 64.0784 -20.2255 64.0255C-17.4963 63.9482 -14.7548 63.8633 -12.0749 63.5242C-5.58099 62.6987 0.84947 61.5776 7.36305 60.8541C12.5533 60.278 17.8275 60.1102 23.8486 59.7106C20.0654 55.7174 16.6073 53.7372 12.2697 53.349C9.36336 53.0891 6.30444 52.8269 3.69826 50.222C4.30467 46.2154 8.71381 47.3778 11.0316 44.9872C8.91581 43.743 7.04006 43.9044 5.20321 43.9776C3.26008 44.0561 1.84377 43.3061 1.38788 41.2371C0.891576 38.9892 0.076203 36.0079 2.58936 35.3387C5.31078 34.6131 5.99468 32.4855 7.34947 30.7165C9.28727 28.1845 11.6294 26.8167 15.273 27.3259C18.3743 27.7593 21.536 27.4272 24.6216 27.1602C30.4498 26.6559 36.1696 25.3458 42.2426 27.0066C43.128 27.2481 44.1347 27.199 45.0084 27.0186C48.8159 26.236 52.5696 26.4371 56.5376 27.6577C61.0095 29.0341 65.2798 28.1958 70 26.1624L45.5029 17.5991C46.7566 14.9095 47.8397 12.1162 49.3454 9.61327C49.8773 8.72887 51.4601 7.99427 52.5322 8.14138C60.8744 9.29234 69.2098 10.6396 77.5404 12.0482C78.2808 12.1728 79.1846 13.0477 79.6365 13.7868C81.2845 16.4746 83.6051 17.2909 86.3771 17.3969C89.265 17.5076 92.1661 17.7963 96.2998 18.0962C91.4506 12.9844 91.702 7.47251 90.2368 2.33575C95.4822 -0.526571 100.869 1.28531 106.182 2.11637C110.239 2.75126 114.34 3.50165 118.365 3.55114C126.105 3.64742 133.8 3.24504 141.524 3.14189C143.356 3.11789 145.267 3.21859 147.078 3.67838C153.686 5.36136 160.283 7.13894 166.852 9.04809C170.674 10.158 174.304 11.5409 178.392 11.349C181.108 11.2212 184.26 12.7853 186.968 14.1838C193.641 17.6328 199.784 22.2367 206.946 24.6911C209.558 25.5858 211.768 28.0045 214.338 29.2835C221.564 32.8798 228.572 37.1269 236.555 38.4839C240.112 39.0883 243.25 41.0331 245.707 44.2451C247.611 46.7335 249.997 48.3815 253.28 49.1501C255.576 49.6877 257.867 51.9785 259.707 53.9265C262.271 56.6391 265 57.9635 268.297 57.1467C273.209 55.9297 277.859 58.709 282.642 59.4006C288.755 60.2835 294.865 61.4273 300.948 62.7194C304.616 63.4989 308.217 64.8681 311.875 65.7983C314.584 66.4889 317.366 67.2967 320.059 67.3493C324.852 67.4416 325.4 67.7638 325.73 72.857C325.766 73.4152 325.858 73.9756 325.96 74.8338C327.25 75.4734 328.892 76.9612 329.937 76.6928C335.085 75.3713 339.594 78.9591 344.452 79.7092C350.403 80.6294 355.683 83.6506 359.581 88.7528C362.031 91.9589 364.742 93.8222 368.662 94.236C372.638 94.6555 373.988 96.0367 377.844 101.865L372.757 104.426C373.47 104.993 374.178 105.909 375.017 106.165C380.115 107.711 385.22 109.277 390.366 110.491C394.01 111.35 397.691 111.286 401.158 113.742C402.351 114.587 404.819 114.12 406.384 113.532C413.889 110.712 426.354 114.626 430.926 121.739C433.989 126.505 438.721 127.327 443.181 128.821C447.338 130.213 451.57 131.268 455.763 132.501C457.913 133.133 459.876 133.459 462.209 133.256C467.493 132.795 471.669 136.29 475.651 140.489C481.541 140.244 487.951 140.616 492.64 135.366C491.914 134.371 491.19 133.492 490.594 132.541C488.747 129.591 489.015 129.117 491.549 127.13C497.772 122.246 505.407 122.858 512.998 123.352C515.385 123.507 517.812 126.239 517.43 128.627C516.789 132.637 517.077 137.544 510.87 138.019C513.584 140.97 516.446 143.55 513.422 147.366C514.871 146.973 516.362 146.059 517.76 146.317C519.599 146.655 521.814 147.509 523.043 148.886C524.452 150.46 523.17 152.892 520.69 154.134C519.446 154.757 518.058 155.121 516.909 155.539C516.283 157.759 517.404 158.69 519.05 159.182C519.765 159.396 520.574 159.516 521.265 159.394C529.7 157.913 537.904 155.948 543.986 149.633L537.217 142.727C533.756 139.195 533.414 134.772 537.293 133.055C543.465 130.321 550.05 128.318 556.663 126.594C558.693 126.065 561.391 127.399 563.767 127.987C566.882 128.758 569.986 129.617 573.089 130.477C575.103 131.035 577.358 131.368 577.005 133.613C582.539 135.189 587.678 136.459 592.721 138.144C597.276 139.665 597.602 140.881 595.353 145.166C595.11 145.63 594.981 146.164 594.694 146.954L603.612 150.072C601.425 146.333 599.528 143.18 601.799 140.096C609.794 140.974 617.409 145.839 619.358 151.728L614.671 152.108C614.697 152.301 614.63 152.709 614.796 152.874C617.017 155.091 619.368 157.182 621.49 159.487C624.168 162.395 626.831 165.097 630.426 166.961C634.596 169.124 638.046 172.57 640.525 176.64C641.654 178.496 642.214 180.963 642.241 183.081C642.285 186.413 640.761 188.692 636.936 188.388C636.28 188.335 635.635 188.817 634.201 189.333C635.73 191.082 636.813 192.604 638.162 193.806C640.654 196.027 643.261 198.115 645.895 200.154C648.755 202.367 650.166 205.222 650.582 208.619C651.111 212.935 650.352 214.269 646.504 215.729C643.151 217.001 639.808 218.296 636.441 219.54C633.021 220.805 630.41 219.748 628.474 216.215C627.625 214.663 626.917 213.047 626.36 211.388C624.292 205.249 623.057 204.104 617.024 203.194C616.137 203.061 615.242 203.161 613.585 203.148C614.59 205.271 615.33 206.955 616.178 208.59C617.254 210.667 618.627 212.635 619.506 214.773C621.379 219.328 620.354 222.886 616.719 225.518C612.855 228.316 607.987 228.298 604.366 225.426C602.425 223.888 600.535 222.281 597.89 220.105L599.498 231.138C596.55 232.633 594.197 231.095 592.054 229.505C588.13 226.596 584.303 223.531 580.525 220.414C577.871 218.224 575.95 215.631 575.901 212.01C575.877 210.352 575.321 208.629 574.88 206.957C574.104 204.024 572.319 202.693 569.288 201.851C563.088 200.129 556.983 197.801 550.903 195.489C548.397 194.536 548.046 192.46 549.704 190.523C552.915 186.77 557.982 186.555 562.593 189.324C566.042 191.396 569.795 192.995 573.531 194.341C575.811 195.162 577.947 195.075 579.696 192.599C580.838 190.98 583.708 190.623 585.892 189.916C588.793 188.977 591.924 188.544 594.695 187.36C598.636 185.674 598.994 182.279 595.597 178.956C593.41 176.817 592.142 174.544 591.07 171.711C589.946 168.741 587.556 166.152 585.888 163.65C575.531 163.418 567.185 157.022 557.125 154.05C558.043 155.198 558.438 155.789 558.925 156.288C563.146 160.616 562.72 163.613 557.384 165.097C554.649 165.858 551.389 165.446 550.916 169.457C550.844 170.058 549.588 170.571 548.763 170.797C544.414 172.006 540.038 173.135 535.635 174.185C532.804 174.848 530.175 173.832 527.634 172.071C524.175 169.672 524.135 169.735 518.95 170.088C521.505 174.374 524.054 178.495 524.13 183.508C524.155 185.097 525.973 186.844 526.934 188.455C524.528 192.37 523.567 192.588 520.167 190.083C519.695 189.734 519.115 189.429 518.81 188.964C515.421 183.779 510.852 184.314 506.263 185.027C503.399 185.472 500.559 186.013 497.654 186.521L492.52 179.317L505.992 170.938C503.993 170.38 503.189 169.873 502.718 170.065C496.022 172.821 488.856 173.794 481.457 173.846C478.325 173.867 475.385 174.663 472.43 175.031C467.486 175.646 462.995 179.482 457.25 176.302C455.89 175.547 453.958 175.958 452.299 175.944C441.785 175.852 431.846 177.946 422.566 181.936C418.557 183.659 415.11 186.522 410.717 189.303C412.618 190.476 413.561 190.968 414.409 191.6C416.343 193.039 416.602 194.59 415.318 196.456C413.726 198.772 412.34 201.245 410.786 203.775C411.662 204.28 412.154 204.779 412.625 204.806C421.642 205.335 426.882 210.71 431.76 218.561C435.357 224.349 440.138 230.196 447.602 232.486C451.415 233.656 454.866 236.621 458.882 239.014C455.01 242.85 451.657 246.15 448.33 249.476C443.633 254.169 443.345 259.418 447.371 266.137C450.252 266.092 453.203 266.366 455.972 265.919C459.045 265.422 461.68 263.893 463.263 261.045C464.639 258.571 466.075 256.136 467.444 253.656C468.042 252.573 468.868 251.502 469.027 250.292C469.505 246.645 471.66 245.72 475.061 245.605C480.929 245.409 486.717 244.626 492.568 244.268C497.065 243.994 500.37 241.639 503.485 238.972C507.374 235.643 507.584 233.771 505.151 228.356C503.672 225.063 504.197 223.739 507.415 223.148C509.019 222.854 510.689 222.75 512.349 222.739C517.277 222.707 520.175 220.006 521.129 215.494C521.736 212.621 523.197 211.084 525.614 209.975C526.668 209.493 527.646 208.586 528.268 207.595C531.601 202.296 537.402 201.446 542.889 205.487C545.396 207.334 547.981 209.07 550.594 210.743C551.562 211.362 552.889 212.209 553.748 212.005C560.11 210.491 561.576 216.221 563.259 219.91C564.429 222.477 565.564 224.461 567.593 226.332C568.97 227.601 569.886 229.403 571.217 231.262C569.607 233.127 568.181 234.675 566.865 236.319C563.749 240.216 563.545 242.533 565.915 245.87C568.039 248.86 572.49 250.667 576.021 249.761C581.096 248.458 586.114 246.989 591.162 245.606C593.005 245.1 594.862 244.632 597.173 244.027C597.604 252.698 598.044 260.58 598.346 268.454C598.401 269.903 598.238 271.53 597.597 272.711C594.174 279.031 595.555 285.078 601.689 289.806C603.397 291.122 605.229 292.328 606.706 293.877C607.504 294.713 608.379 296.708 608.004 297.248C606.472 299.46 607.606 301.093 609.072 302.81C611.214 305.321 611.767 307.6 610.164 310.531C608.301 313.94 607.833 318.25 603.204 319.457C602.321 319.688 602.407 322.164 601.51 323.043C599.296 325.213 596.773 327.058 593.998 329.342C594.45 330.986 594.437 333.963 595.859 335.251C597.23 336.491 600.088 335.919 602.285 336.279C603.382 336.458 604.549 336.759 605.531 337.322C607.813 338.629 608.497 341.124 606.579 342.377C603.021 344.701 602.963 349.236 600.215 352.049L603.95 355.963L597.679 360.731C593 358.609 589.322 355.499 585.551 351.24C584.484 350.034 582.768 349.164 581.235 348.666C575.097 346.672 568.899 344.945 562.759 342.963C561.644 342.604 560.688 341.507 558.921 340.208C565.431 336.709 571.39 333.726 577.113 330.368C582.868 326.99 588.388 323.242 594.157 319.564C590.427 316.924 586.634 316.63 582.679 317.967C577.387 319.755 571.997 321.279 566.062 320.201C563.889 319.807 561.559 319.545 559.611 318.51C554.128 315.587 548.316 313.509 542.386 312.352C537.425 311.37 532.557 309.222 527.689 307.44C525.247 306.545 523.171 306.601 520.73 307.243C517.299 308.147 513.471 307.857 509.873 308.341C506.96 308.731 503.835 308.955 501.541 312.477C503.551 312.166 504.772 312.114 505.888 311.781C512.314 309.872 519.046 310.622 525.675 312.086C528.406 312.689 531.244 314.748 533.463 316.8C536.059 319.2 535.46 321.667 532.342 322.781C529.36 323.847 526.828 324.776 524.969 327.969C521.231 334.384 522.902 340.962 530.253 344.626C533.557 346.274 536.683 348.111 538.6 352.293C537.334 352.457 536.387 352.661 535.419 352.688C531.739 352.788 528.039 352.728 524.375 352.923C521.263 353.089 518.377 353.414 515.131 351.683C513.524 350.826 510.899 351.729 508.952 352.374C506.93 353.043 505.241 354.498 503.281 355.359C500.429 356.612 497.93 355.896 496.988 353.628C495.849 350.884 497.22 349.211 499.373 348.312C504.091 346.344 508.904 344.569 513.68 342.717C513.12 342.587 512.214 342.213 511.34 342.203C503.974 342.124 496.475 341.106 489.409 343.218C488.45 343.505 487.168 343.354 486.148 342.977C483.641 342.051 481.546 342.026 479.365 343.518C478.198 344.316 476.273 344.401 474.701 344.208C469.515 343.573 465.385 345.677 461.518 348.197C460.186 349.063 459.738 351.17 458.752 352.607C457.902 353.851 457.056 355.795 455.871 355.956C452.117 356.47 448.051 357.198 444.39 356.187C438.134 354.458 432.701 356.588 426.883 356.749C426.367 356.764 425.674 356.957 425.432 357.333C422.336 362.151 416.861 363.096 412.039 365.13C411.1 365.527 410.444 366.478 409.597 367.095C407.182 368.858 404.737 370.583 402.154 372.427L399.326 369.259C397.886 373.261 396.906 377.159 395.14 380.58C393.126 384.482 391.27 388.804 386.129 389.714C385.206 389.877 384.066 390.701 383.789 391.548C382.844 394.44 380.926 394.694 378.157 394.151C374.42 393.419 370.705 393.226 367.715 395.847C367.092 396.392 366.068 396.739 365.2 396.699C356.966 396.319 350.283 400.702 342.605 402.073C336.774 403.115 333.96 408.684 329.442 411.772C328.82 412.197 328.565 413.355 328.453 414.247C327.714 420.118 327.014 426 326.392 431.897C325.946 436.135 326.131 440.569 325.162 444.617C323.416 451.914 317.884 455.704 311.07 455.114C308.553 447.763 306.311 440.36 306.913 432.745C307.117 430.159 307.088 427.066 308.449 425.253C311.44 421.261 309.861 417.635 307.742 413.746C307.375 413.073 306.856 412.474 306.441 411.887L297.249 410.93C296.861 409.771 296.463 408.718 296.155 407.646C294.986 403.577 292.68 400.991 288.637 400.593C284.468 400.183 280.518 397.754 276.123 398.679C274.18 399.087 271.576 397.273 268.855 396.322L266.945 404.103C261.793 401.425 257.214 398.649 252.391 396.659C248.083 394.881 244.463 391.99 240.467 389.798C238.341 388.632 235.341 388.886 232.856 389.127C228.5 389.546 224.296 390.924 219.92 391.02C215 391.128 210.809 393.071 206.28 394.135C201.987 395.146 199.748 398.42 198.845 402.55C198.021 406.311 196.185 409.193 193.629 411.789C188.205 417.301 184.564 424.144 181.641 431.371C180.587 433.975 181.236 437.424 180.228 440.066C177.895 446.193 179.138 452.56 180.001 458.964C180.483 462.539 181.838 465.641 184.943 467.911C185.728 468.484 186.867 469.073 187.114 469.83C188.63 474.497 191.879 474.498 195.671 474.696C198.922 474.865 202.28 476.131 205.516 477.228C215.522 480.624 215.539 480.708 221.692 472.905C222.894 471.383 224.01 469.694 224.711 467.861C226.236 463.878 228.765 462.056 233.343 462.377C239.621 462.818 245.885 462.824 251.768 466.298C253.153 467.117 255.179 468.601 255.229 469.682C255.299 471.239 254.223 473.354 252.935 474.077C250.38 475.512 249.664 477.942 248.284 480.225C245.262 485.227 241.608 489.87 237.669 494.134C235.514 496.466 233.17 498.38 231.774 501.482C230.569 504.17 228.241 506.215 226.122 508.905ZM380.858 292.6C382.895 294.39 385.102 296.02 386.927 298.009C389.587 300.911 389.303 302.98 386.253 304.807C384.391 305.921 382.084 306.423 380.752 308.484C386.253 311.356 386.253 311.356 384.293 318.011L401.259 306.957L406.061 311.94C409.177 306.605 409.026 305.047 404.614 301.623C401.702 299.361 398.58 297.341 395.406 295.514C390.604 292.751 388.741 289.135 390.029 284.09C390.473 282.35 391.183 280.708 391.572 279.591L385.654 270.482C383.374 269.998 380.221 268.851 377.145 268.763C366.812 268.466 356.846 270.215 346.798 271.465L346.821 272.662L366.491 276.424C370.026 280.981 371.203 281.8 377.63 283.231C383.945 284.637 388.93 287.455 390.635 295.309C388.836 294.68 387.521 294.113 386.174 293.777C384.441 293.342 382.681 293.093 380.928 292.75C380.639 292.496 380.351 292.05 380.06 292.017C372.159 291.079 364.653 290.593 357.758 295.284C351.895 299.273 347.355 304.242 343.334 309.877C342.416 311.162 342.434 313.181 341.785 315.824C348.384 314.914 353.302 312.784 355.922 307.935C359.698 300.949 365.625 297.508 373.038 295.654C375.758 294.973 378.258 293.636 380.858 292.6ZM381.185 329.403C387.466 330.836 393.394 329.91 399.312 328.915C392.68 325.134 386.983 327.607 381.185 329.403ZM145.883 172.746C145.656 179.15 146.761 182.642 150.048 186.092C148.664 182.05 149.847 177.538 145.883 172.746ZM334.332 598.963C331.296 602.016 331.296 602.016 334.048 605.816C336.361 603.996 335.417 601.687 334.332 598.963ZM375.584 328.718L375.707 328.314L372.281 326.849L372.089 327.496L375.584 328.718ZM1777.71 1541.93C1775.19 1542.31 1772.81 1542.45 1770.6 1543.06C1767.36 1543.97 1764.42 1543.36 1761.56 1541.19C1758.43 1538.83 1755.33 1536.44 1752.14 1534.18C1747.29 1530.73 1746.38 1528.38 1748.25 1523.02C1748.9 1521.14 1750.02 1519.47 1750.74 1517.62C1751.73 1515.06 1752.71 1512.6 1749.44 1510.05C1748.48 1509.3 1748.71 1506.87 1748.32 1504.82L1740.53 1503.07C1743.59 1496.67 1751.39 1497.29 1754.29 1491.4C1748.63 1493.17 1742.95 1494.88 1737.32 1496.73C1734.84 1497.55 1733.39 1497.09 1732.65 1494.45C1732.2 1492.84 1732.01 1490.95 1732.42 1489.46C1733.34 1486.05 1733.12 1482.68 1732.87 1479.07C1732.64 1475.64 1731.24 1473.84 1728.98 1471.83C1726.37 1469.52 1724.01 1466.92 1721.39 1464.62C1720.1 1463.48 1718.53 1462.24 1716.99 1461.92C1711.11 1460.72 1705.19 1459.78 1699.28 1458.93C1693.91 1458.16 1688.54 1457.59 1683.17 1457C1680.06 1456.65 1676.92 1456.23 1673.82 1456.2C1668.87 1456.15 1663.93 1456.4 1658.2 1456.53C1654.98 1460.03 1650.21 1460.39 1644.71 1458C1641.17 1456.47 1637.55 1455.19 1633.97 1453.81C1628.64 1451.75 1623.48 1450.78 1618.25 1453.03C1615.17 1454.35 1611.66 1454.9 1608.25 1455.42C1601.66 1456.42 1596.36 1452.79 1593.74 1446.01C1593.08 1444.29 1591.77 1442.77 1590.72 1441.1C1591.23 1438.08 1593.2 1436.61 1595.95 1435.69C1601.41 1433.87 1603.69 1428.58 1607.2 1424.65C1607.77 1424.02 1607.38 1422.5 1607.47 1421.39C1608.04 1414.3 1608.94 1407.33 1611.9 1400.99C1612.41 1399.9 1612.5 1398.48 1612.47 1397.19C1612.39 1392.14 1612.06 1387.06 1612.06 1382.02C1612.06 1379.23 1612.55 1376.49 1612.79 1373.99C1615.53 1372.06 1617.67 1372.07 1619.64 1375.55C1619.71 1373.56 1619.94 1371.58 1619.8 1369.58C1619.4 1364.18 1621.65 1360.23 1625.45 1357.27C1628.23 1355.1 1630.08 1352.49 1630.8 1348.87C1631.18 1346.96 1631.7 1344.53 1634.76 1346.61C1635.04 1346.8 1635.48 1346.95 1635.75 1346.87C1640.2 1345.52 1644.94 1344.67 1648.98 1342.59C1652.68 1340.69 1656.23 1340.64 1660.13 1341.92C1662.97 1342.86 1665.6 1343.47 1668.02 1341.59C1668.54 1341.19 1669.41 1340.89 1670.06 1341.04C1673.37 1341.82 1676.63 1342.74 1679.75 1341.12C1680.22 1340.88 1681.23 1341.36 1681.9 1341.71C1688.45 1345.05 1694.07 1344.08 1699.27 1340.05C1701.47 1338.34 1704.24 1337.37 1706.56 1335.8C1707.63 1335.08 1708.78 1333.85 1708.95 1332.62C1709.71 1327.25 1713.43 1325.2 1718.31 1323.41L1722.24 1331.97C1724.36 1327.69 1722.95 1320.1 1730.74 1324.12C1731.59 1322.13 1731.88 1319.54 1733.29 1318.67C1734.9 1317.68 1737.51 1318.24 1740.12 1318.1C1741.16 1313.13 1746.13 1313.94 1749.89 1312.89C1751.7 1312.39 1753.88 1312.65 1755.87 1312.98C1757.21 1313.21 1759 1313.85 1759.71 1314.88C1761.74 1317.81 1763.32 1321.05 1765.65 1325.18L1772.15 1328.62C1771.07 1321.31 1776.46 1320 1780.67 1317.58C1781.53 1317.09 1782.17 1316.25 1782.96 1315.63C1784.63 1314.34 1786.16 1312.74 1788.07 1311.89C1790.68 1310.73 1793.44 1310.15 1796.45 1312.48C1797.86 1313.56 1799.88 1313.78 1801.39 1314.3C1804.29 1311.81 1802.25 1308.89 1801.56 1304.99C1804.48 1306.78 1806.94 1307.64 1808.44 1309.35C1812.89 1314.42 1818.65 1317.24 1824.27 1320.08C1826.61 1321.25 1828.9 1323.04 1831.99 1323.1C1834.87 1323.15 1836.11 1328.01 1834.04 1330.44C1833.24 1331.37 1832.1 1332 1831.09 1332.73C1828.8 1334.37 1826.3 1335.77 1824.25 1337.67C1822.36 1339.43 1820.93 1341.7 1819.05 1344.05C1823.17 1350.31 1827.4 1356.58 1831.46 1362.96C1833.53 1366.22 1836 1369.28 1838.25 1372.32C1841.77 1377.08 1846.4 1379.32 1849.78 1373.19C1853.75 1365.97 1859.36 1360.05 1863.03 1352.51C1866.45 1345.5 1871.82 1339.61 1876.38 1333.25C1877.6 1331.55 1878.98 1329.96 1880.59 1327.94C1883.7 1331.64 1882.55 1335.37 1882.79 1338.85C1883.03 1342.4 1883.1 1345.99 1882.8 1349.47C1882.48 1353.11 1881.63 1356.65 1881 1360.27C1886.56 1362.23 1889.94 1368.35 1888.49 1374.19C1888.22 1375.26 1887.8 1376.38 1887.94 1377.46C1888.94 1385.08 1886.66 1391.89 1884.88 1398.77C1883.91 1402.52 1884.79 1405.01 1887.66 1407.93C1890.22 1410.54 1892.09 1413.93 1893.95 1417.14C1894.66 1418.37 1894.59 1420.06 1894.71 1421.53C1894.78 1422.46 1894.18 1423.54 1894.53 1424.27C1896.65 1428.67 1895.62 1432.79 1894.74 1437.18C1899.68 1440.16 1901.4 1444.18 1899.81 1449.33C1899.51 1450.28 1899.53 1451.81 1900.09 1452.61C1903.33 1457.25 1903.09 1462.53 1904.46 1467.5C1904.61 1468.03 1904.86 1468.55 1905.16 1469.29L1909.45 1468.74C1908.32 1470.21 1907.68 1470.98 1907.11 1471.8C1905.91 1473.52 1904.65 1475.22 1903.58 1477.03C1902.59 1478.72 1901.94 1480.64 1900.88 1482.27C1899.8 1483.93 1898.83 1485.37 1899.08 1487.76C1899.25 1489.43 1898.5 1491.48 1897.44 1492.7C1892.57 1498.36 1887.44 1503.78 1882.42 1509.3C1881.6 1510.21 1880.87 1511.2 1880.08 1512.13C1879.04 1513.34 1878.21 1514.91 1876.88 1515.65C1872.55 1518.05 1868.12 1520.27 1863.59 1522.3C1858.69 1524.49 1853.5 1526.13 1848.71 1528.48C1845.73 1529.94 1843.23 1532.25 1840.56 1534.24C1839.71 1534.88 1839.14 1536.18 1838.21 1536.36C1830.07 1537.93 1825.92 1545.11 1819.51 1549.12C1817.19 1550.57 1815.07 1551.14 1812.44 1550.85C1811.33 1550.72 1810.22 1550.43 1809.12 1550.15C1803.86 1548.79 1799.03 1549.38 1793.98 1550.64C1782.02 1553.63 1783.57 1552.61 1777.71 1541.93ZM878.073 262.238L881.644 267.358C871.391 267.5 862.298 269.456 852.945 268.132C843.808 266.839 834.377 266.976 824.991 262.036C819.707 263.648 814.032 266.214 807.959 267.007C801.347 267.871 794.376 267.274 787.542 266.9C785.815 266.804 784.014 265.128 781.481 263.767C778.71 265.501 774.79 265.295 770.679 263.613C767.772 262.424 765.101 263.015 762.791 264.544C760.572 266.015 758.299 267.522 756.488 269.446C752.516 273.659 747.811 276.17 741.417 275.734C738.412 284.157 730.037 285.302 723.367 288.689C720.501 290.144 715.897 287.637 714.269 283.541C711.872 277.504 707.707 275.06 701.992 274.801C699.966 274.71 698.49 273.623 698.103 271.889C696.2 263.355 692.919 254.786 695.49 246.244C695.805 245.199 696.357 244.241 696.602 243.177C696.995 241.471 697.592 239.718 697.449 237.972C697.015 232.667 698.157 227.932 701.168 224.069C704.771 219.447 709.699 217.352 716.058 218.369C718.695 218.791 721.71 220.075 723.708 217.606C724.601 213.581 719.577 210.159 721.991 205.47L731.852 209.488C733.461 205.2 729.973 203.601 727.716 202.082C725.235 200.411 722.21 199.66 719.689 198.617C719.031 195.113 721.002 193.673 722.498 191.943C727.411 186.27 727.866 179.978 724.26 172.754C722.827 169.883 720.591 168.177 718.026 166.786C709.65 162.239 701.185 158.088 691.889 156.54C687.565 155.821 683.619 153.549 680.339 150.194C678.784 148.604 677.486 147.119 678.688 144.69C679.204 143.645 678.44 141.854 678.276 140.402C678.121 139.016 677.99 137.628 677.756 135.315C685.353 137.074 692.106 138.806 698.893 140.159C705.523 141.479 712.187 142.411 719.117 143.561L719.716 139.404C721.183 139.379 722.619 139.163 724.041 139.366C733.285 140.69 742.576 142.892 751.752 143.253C759.923 143.573 767.625 145.449 775.395 148.21C776.452 148.586 777.613 148.552 778.725 148.711C785.568 149.691 792.159 151.552 798.891 153.946C812.364 158.739 826.042 163.136 840.058 165.003C851.129 166.478 861.664 170.381 872.145 174.929C876.107 176.648 880.559 176.973 884.8 177.774C902.499 181.119 918.982 188.151 934.208 198.994C936.636 200.723 936.572 200.824 936.687 203.33C943.98 206.341 951.042 209.359 958.166 212.165C963.121 214.118 968.172 215.742 973.152 217.613C974.134 217.981 974.989 218.809 976.717 219.973C975.014 220.747 974.055 221.6 973.022 221.582C968.784 221.509 964.494 221.584 960.28 220.828C954.822 219.849 949.546 219.843 944.248 220.402C942.264 220.611 940.188 220.386 938.219 220.646C935.934 220.945 933.693 221.481 931.484 222.06C929.608 222.553 927.802 223.25 925.845 223.898C927.204 226.339 930.899 228.055 928.892 231.353C927.236 234.075 924.349 232.75 921.83 232.511C921.118 232.444 920.405 232.406 919.808 232.362C919.541 232.877 919.166 233.247 919.255 233.473C921.336 238.848 920.113 241.799 914.991 244.36C908.234 247.737 901.926 249.965 893.872 246.998C890.208 245.649 886.185 245.658 880.81 244.812C882.483 247.159 883.175 248.379 884.102 249.376C885.571 250.955 887.333 252.269 888.726 253.905C891.151 256.75 891.394 259.854 890.146 262.998C889.295 265.141 887.905 266.163 885.43 265.204C882.922 264.234 880.406 263.285 877.892 262.327C876.983 259.966 877.022 257.083 873.851 255.679L871.299 258.757C873.799 260.049 875.936 261.144 878.073 262.238ZM1922.23 1295.24C1927.18 1299.97 1933.35 1302.8 1934.61 1310.6L1927.07 1312.07C1927.29 1313.14 1927.42 1314.03 1927.66 1314.89C1929 1319.67 1932.22 1323.95 1932.51 1329.05C1932.56 1329.93 1933.83 1331.65 1934.42 1331.65C1938.44 1331.67 1937.78 1334.02 1938.38 1336.87C1938.99 1339.77 1941.64 1342.48 1943.55 1345.17C1944.64 1346.67 1945.9 1348.14 1944.74 1349.77C1943.43 1351.63 1941.44 1350.57 1939.67 1349.94C1939.14 1349.76 1938.46 1349.46 1938.2 1349.03C1935.29 1344.17 1930.67 1342.92 1925.9 1341.23C1921.79 1339.78 1919.52 1335.64 1917.99 1331.5C1917.38 1329.86 1916.49 1328.1 1916.56 1326.51C1916.84 1319.52 1911.54 1316.15 1907.15 1312.18C1904.97 1310.2 1902.57 1310.2 1900.47 1311.61C1898.58 1312.88 1896.69 1314.27 1895.2 1315.98C1892.69 1318.86 1889.58 1319.17 1885.79 1318.57C1878.78 1317.47 1874.85 1312.64 1871.63 1306.79C1870.78 1305.26 1870.13 1303.64 1869.47 1302.23C1864.09 1299.12 1858.26 1304.81 1853.21 1298.94C1854.06 1293.99 1857.42 1291.46 1862.54 1289.87C1862.07 1285.55 1861.75 1281.05 1861.01 1276.57C1860.75 1275 1859.76 1273.17 1858.57 1272.05C1855.14 1268.83 1851.62 1265.59 1847.78 1262.96C1843.98 1260.37 1840.7 1257.51 1838.12 1253.66C1837.1 1252.14 1835.54 1250.98 1834.79 1250.22C1832.23 1251.37 1830.35 1253.11 1828.65 1252.78C1825.5 1252.16 1826.2 1248.86 1825.68 1246.54C1825.05 1243.77 1824.49 1240.98 1823.9 1238.15L1834.68 1237.78L1834.69 1236.62C1833.34 1236.14 1831.98 1235.69 1830.64 1235.19C1828.32 1234.34 1826.54 1232.97 1826.08 1230.33C1825.59 1227.53 1823.8 1225.95 1821.28 1224.91C1818.45 1223.73 1817.13 1221.64 1817.34 1218.89C1821.81 1218.75 1825.93 1218.68 1830.02 1218.48C1834.76 1218.25 1838.38 1220.4 1841.16 1224.48C1842.38 1226.26 1843.53 1228.07 1844.84 1230.05C1842.95 1236.42 1844.15 1242.72 1848.09 1249.49C1849.73 1248.35 1851.05 1247.53 1852.26 1246.58C1853.24 1245.82 1853.93 1244.43 1855.03 1244.13C1859.74 1242.86 1864.5 1241.71 1869.35 1240.96C1870.44 1240.79 1872.05 1242.31 1873.27 1243.27C1877.88 1246.92 1882.36 1250.75 1887.01 1254.35C1894.11 1259.83 1901.55 1264.85 1908.36 1270.68C1912.09 1273.89 1914.87 1278.32 1918 1282.26C1918.84 1283.33 1919.34 1284.66 1920.12 1285.79C1922.31 1288.95 1924.35 1292.11 1922.23 1295.24ZM1735.24 1173.28L1726.93 1172.37C1725 1173.22 1723.7 1175.26 1723.29 1177.94C1722.73 1181.58 1721.14 1183.86 1717.19 1184.33C1713.05 1184.83 1710.3 1187.05 1710.51 1191.92C1710.55 1192.96 1710.25 1194.45 1709.55 1194.89C1706.19 1196.99 1705.39 1200.41 1705.4 1204.16L1692.34 1204.35L1690.42 1197.79C1688.19 1196.1 1683.78 1196.8 1683.92 1192.31L1672.58 1192.88L1670.23 1187.46C1668.76 1187.1 1667.25 1186.92 1665.87 1186.35C1662.57 1184.98 1661.69 1183.44 1661.59 1179.69C1661.49 1176.49 1661.34 1173.29 1661.14 1170.09C1661.08 1169.18 1661.08 1167.93 1660.53 1167.41C1657.16 1164.16 1658.32 1160.73 1658.87 1157.3C1659.16 1155.49 1660 1153.61 1659.64 1151.87C1658.59 1146.82 1660.5 1143.57 1664.14 1141.06C1664.86 1140.56 1665.49 1139.94 1666.47 1139.12L1676.35 1144.07C1676.96 1143.71 1677.42 1143.61 1677.53 1143.34C1680.2 1137.23 1685.04 1135.57 1691.61 1137.1C1694.64 1137.8 1696.81 1136.53 1698.69 1134.28C1702.03 1130.27 1706.09 1127.28 1711.74 1126.88C1715.92 1126.58 1719.16 1124.66 1722.02 1121.74C1724.57 1119.12 1727.7 1117.09 1730.57 1114.81C1731.39 1115.56 1732.04 1115.89 1732.19 1116.34C1734.36 1123.09 1738.4 1128.45 1743.87 1133.11C1747.02 1135.79 1746.26 1138.04 1742.47 1138.99C1741.61 1139.2 1740.68 1139.22 1739.63 1139.34C1739.86 1142.41 1738.99 1144.11 1735.58 1143.39C1732.86 1142.8 1731.63 1144.11 1731.66 1147.04C1731.71 1150.13 1731.23 1153.12 1731.3 1156.29C1731.43 1161.93 1732.94 1167.16 1735.24 1173.28Z" fill="#E8EDEF"/>
</svg>
