<svg width="88" height="88" viewBox="0 0 88 88" fill="none" xmlns="http://www.w3.org/2000/svg">
<g clip-path="url(#clip0_53_74)">
<mask id="mask0_53_74" style="mask-type:alpha" maskUnits="userSpaceOnUse" x="-3" y="13" width="26" height="75">
<rect x="-2.30853" y="15.3496" width="10" height="74" transform="rotate(-12 -2.30853 15.3496)" fill="#D9D9D9"/>
</mask>
<g mask="url(#mask0_53_74)">
<circle cx="43.6749" cy="43.7745" r="37.1803" transform="rotate(77 43.6749 43.7745)" stroke="#1B485A" stroke-linecap="round" stroke-linejoin="round" stroke-dasharray="5 4"/>
</g>
<g clip-path="url(#clip1_53_74)">
<path d="M19.3059 17.4456C20.1859 18.1744 20.6128 19.0643 20.5868 20.1155C20.5608 21.1666 20.0843 22.2517 19.1575 23.3709C18.2306 24.4901 17.2982 25.2623 16.3602 25.6875L14.8304 24.4206C15.4162 24.145 15.9794 23.8049 16.5198 23.4004C17.0639 22.9913 17.5173 22.5679 17.8798 22.1302C18.4105 21.4894 18.6792 20.9169 18.6859 20.4127C18.6964 19.9041 18.4962 19.4797 18.0856 19.1396C17.7155 18.8331 17.286 18.7133 16.7971 18.78C16.3082 18.8468 15.5252 19.1722 14.4482 19.7561C13.3352 20.356 12.3908 20.6466 11.615 20.6279C10.8392 20.6093 10.1219 20.3272 9.46302 19.7815C8.63719 19.0976 8.23028 18.2661 8.24228 17.287C8.25429 16.3079 8.66953 15.3243 9.488 14.336C10.2728 13.3883 11.2615 12.617 12.454 12.0222L13.348 13.6298C12.2491 14.2034 11.4138 14.8353 10.842 15.5258C10.4085 16.0493 10.1947 16.5417 10.2006 17.0031C10.202 17.4607 10.39 17.8446 10.7646 18.1548C11.0218 18.3678 11.2878 18.4968 11.5625 18.5417C11.8327 18.5829 12.1518 18.5467 12.5198 18.433C12.8878 18.3194 13.4722 18.0501 14.2728 17.6253C15.1769 17.1491 15.8999 16.8502 16.442 16.7285C16.984 16.6068 17.4852 16.6034 17.9454 16.7183C18.4056 16.8332 18.8591 17.0756 19.3059 17.4456Z" fill="#0C1F26"/>
<path d="M27.9052 16.2345C26.6121 17.0177 25.3721 17.255 24.185 16.9464C23 16.6298 22.0068 15.8099 21.2054 14.4868C20.3827 13.1286 20.0745 11.8562 20.2806 10.6696C20.4866 9.48298 21.1811 8.53148 22.3638 7.81509C23.4614 7.15031 24.5303 6.95845 25.5705 7.2395C26.6108 7.52055 27.4845 8.24495 28.1918 9.41269L28.7701 10.3674L23.2295 13.7232C23.7433 14.5149 24.3377 15.0043 25.0128 15.1915C25.6848 15.3736 26.3942 15.2385 27.141 14.7862C27.6321 14.4887 28.0609 14.1673 28.4272 13.8221C28.7955 13.4689 29.1575 13.0373 29.5131 12.5274L30.3828 13.9632C30.0762 14.4298 29.7283 14.8392 29.3388 15.1915C28.9494 15.5438 28.4715 15.8915 27.9052 16.2345ZM23.1743 9.15323C22.613 9.49321 22.2697 9.94433 22.1444 10.5066C22.0242 11.0658 22.1379 11.7059 22.4856 12.427L26.2594 10.1412C25.8335 9.4607 25.354 9.04216 24.8207 8.88561C24.2844 8.72405 23.7356 8.81326 23.1743 9.15323Z" fill="#0C1F26"/>
<path d="M38.093 12.767C36.6111 13.0663 35.364 12.8698 34.3515 12.1776C33.3435 11.4785 32.6865 10.3709 32.3803 8.85461C32.066 7.29813 32.2066 5.99649 32.8022 4.94968C33.3978 3.90287 34.3733 3.2426 35.7287 2.96888C36.9866 2.71488 38.0573 2.89616 38.941 3.51274C39.8246 4.12932 40.4016 5.10672 40.6718 6.44494L40.8928 7.53906L34.5434 8.82127C34.7589 9.74016 35.1525 10.4019 35.7244 10.8065C36.2951 11.2053 37.0084 11.3183 37.8641 11.1455C38.427 11.0318 38.9392 10.8746 39.4008 10.6738C39.8669 10.4661 40.3536 10.1825 40.8609 9.823L41.1932 11.4685C40.7468 11.8037 40.2807 12.0712 39.795 12.2709C39.3093 12.4706 38.742 12.636 38.093 12.767ZM36.0384 4.50238C35.3952 4.63228 34.9194 4.94056 34.6112 5.42721C34.3087 5.91271 34.1991 6.55354 34.2821 7.34973L38.6069 6.47637C38.4366 5.69184 38.127 5.13567 37.6782 4.80786C37.2283 4.4743 36.6817 4.37248 36.0384 4.50238Z" fill="#0C1F26"/>
<path d="M60.8395 17.0766L58.892 16.2663L61.1168 10.9187L55.6475 8.64317L53.4226 13.9908L51.4832 13.1839L56.4191 1.32012L58.3585 2.12701L56.3396 6.97964L61.8089 9.25515L63.8278 4.40252L65.7754 5.21279L60.8395 17.0766Z" fill="#0C1F26"/>
<path d="M72.4108 21.6789C71.3032 22.8167 70.147 23.4207 68.9421 23.4907C67.7373 23.5608 66.6143 23.089 65.573 22.0754C64.9223 21.4419 64.4901 20.735 64.2766 19.9547C64.0631 19.1744 64.0897 18.3785 64.3564 17.5669C64.6231 16.7554 65.11 15.9864 65.8171 15.26C66.9165 14.1307 68.0645 13.531 69.2611 13.461C70.4576 13.3911 71.5828 13.8691 72.6367 14.8949C73.6443 15.8758 74.1253 16.9778 74.0795 18.2008C74.0379 19.4195 73.4817 20.5789 72.4108 21.6789ZM67.3411 16.7437C65.7758 18.3517 65.5872 19.7341 66.7753 20.8907C67.9509 22.0351 69.3214 21.8033 70.8868 20.1953C72.4358 18.6041 72.6183 17.2322 71.4344 16.0796C70.813 15.4747 70.1614 15.241 69.4795 15.3786C68.8019 15.5203 68.0891 15.9754 67.3411 16.7437Z" fill="#0C1F26"/>
<path d="M73.1963 34.3836L76.8536 31.4219C77.2334 31.0906 78.1471 30.3927 79.5947 29.3285L79.5631 29.256C77.9768 29.5754 76.8404 29.7759 76.1538 29.8574L71.4958 30.4748L70.5842 28.3794L78.411 22.0031L79.2525 23.9373L75.3545 26.9846C74.3814 27.7147 73.5313 28.3017 72.8044 28.7458L72.8254 28.7941C73.241 28.6772 73.7247 28.5626 74.2765 28.4504C74.836 28.3412 75.2596 28.2719 75.5472 28.2426L80.8268 27.556L81.7314 29.6354L77.6123 32.9896C77.3841 33.1848 77.0244 33.4595 76.5331 33.8138C76.0442 34.1734 75.654 34.4295 75.3625 34.5818L75.3905 34.6463C76.0864 34.4394 77.0924 34.2254 78.4084 34.0044L83.3022 33.246L84.1296 35.148L74.122 36.5113L73.1963 34.3836Z" fill="#0C1F26"/>
<path d="M74.1912 47.4309L86.9151 49.2242L86.6219 51.3042L73.8981 49.511L74.1912 47.4309Z" fill="#0C1F26"/>
<path d="M72.564 58.3422C72.3733 58.8086 72.2557 59.305 72.2114 59.8312L70.7715 59.2424C70.7658 58.9932 70.8019 58.6882 70.8798 58.3276C70.95 57.9701 71.0583 57.6124 71.2047 57.2545C71.9455 55.4431 73.2704 54.9278 75.1794 55.7085L80.0279 57.6914L80.5303 56.463L81.3763 56.809L81.5369 58.413L83.1744 59.8423L82.692 61.0219L80.6908 60.2035L79.6428 62.766L78.1947 62.1738L79.2427 59.6113L74.4268 57.6417C73.9658 57.4531 73.5775 57.4273 73.262 57.5641C72.9497 57.7086 72.717 57.968 72.564 58.3422Z" fill="#0C1F26"/>
<path d="M55.0624 73.5376L56.9487 72.2475L63.0743 77.3432C63.3402 77.5659 63.7082 77.8963 64.1782 78.3345C64.6515 78.7774 64.9697 79.0922 65.1328 79.2788C64.9695 78.9362 64.7747 78.4802 64.5486 77.9108C64.3176 77.3447 64.1557 76.9159 64.0629 76.6245L61.5119 69.1267L63.3981 67.8367L68.4011 72.2094L73.4159 76.5527L71.6458 77.7633L65.9023 72.6193C64.9872 71.7899 64.2193 71.0303 63.5984 70.3404C63.8263 70.7879 64.0608 71.3019 64.3017 71.8825C64.5426 72.4631 64.727 72.9404 64.8549 73.3143L67.3655 80.6906L65.6462 81.8665L59.619 76.8526C59.0561 76.3929 58.2884 75.6544 57.3158 74.6371C57.7163 75.3784 58.1442 76.3777 58.5995 77.6351L61.3079 84.8336L59.5522 86.0343L55.0624 73.5376Z" fill="#0C1F26"/>
<path d="M44.1483 80.4835C43.8488 78.9241 44.0149 77.6303 44.6468 76.602C45.2786 75.5737 46.308 74.9225 47.735 74.6484C48.6269 74.4771 49.4539 74.5271 50.2161 74.7983C50.9782 75.0696 51.6158 75.5467 52.1288 76.2298C52.6419 76.9129 52.994 77.7521 53.1853 78.7476C53.4826 80.2955 53.3177 81.5801 52.6905 82.6015C52.0633 83.6229 51.0276 84.2724 49.5833 84.5498C48.2023 84.8151 47.0233 84.5791 46.0464 83.842C45.0706 83.1106 44.4379 81.9911 44.1483 80.4835ZM51.0965 79.1488C50.6732 76.945 49.6473 75.9994 48.0188 76.3122C46.4077 76.6217 45.8138 77.8784 46.2371 80.0823C46.656 82.2631 47.6768 83.1977 49.2995 82.886C50.1511 82.7224 50.7155 82.3216 50.9927 81.6836C51.2642 81.0468 51.2988 80.2018 51.0965 79.1488Z" fill="#0C1F26"/>
<path d="M34.6379 84.3577C34.225 84.3066 33.8885 84.2354 33.6282 84.1441L34.0653 82.2587C34.3474 82.3645 34.6455 82.4368 34.9595 82.4757C35.7794 82.5772 36.4783 82.3922 37.0563 81.9205C37.6284 81.4482 37.9674 80.7846 38.0732 79.9298L38.6974 74.8882L40.7471 75.142L39.5528 84.789L37.9479 84.5903L37.8881 82.856L37.7834 82.843C37.3923 83.3791 36.92 83.7841 36.3665 84.058C35.8072 84.3312 35.231 84.4311 34.6379 84.3577Z" fill="#0C1F26"/>
<path d="M28.2772 77.2442L26.6104 78.0909L22.6454 79.7297L20.4757 78.7469L25.761 76.5579L24.2626 69.7908L26.4722 70.7917L27.5554 75.962L28.9726 75.5812L30.3471 72.547L32.2125 73.392L26.5695 85.8492L24.7042 85.0043L27.4567 78.9277L28.3253 77.266L28.2772 77.2442Z" fill="#0C1F26"/>
</g>
<path d="M52.4862 41.741C53.455 42.3347 53.455 43.741 52.4862 44.3347L41.4862 50.8347C40.4862 51.4285 39.2362 50.7097 39.2362 49.5222V36.5222C39.2362 35.241 40.58 34.7097 41.4862 35.241L52.4862 41.741Z" fill="#1B485A"/>
</g>
<defs>
<clipPath id="clip0_53_74">
<rect width="88" height="88" fill="white"/>
</clipPath>
<clipPath id="clip1_53_74">
<rect width="87" height="72" fill="white" transform="translate(75.4365 -6.69482) rotate(77)"/>
</clipPath>
</defs>
</svg>
