<svg width="90" height="90" viewBox="0 0 90 90" fill="none" xmlns="http://www.w3.org/2000/svg">
<g clip-path="url(#clip0_70_54)">
<path d="M21.0027 16.1369L21.9893 15.2952C22.651 14.7307 23.0265 14.1981 23.1158 13.6974C23.2051 13.1968 23.0453 12.7033 22.6363 12.217C22.2206 11.7227 21.7618 11.5049 21.2598 11.5635C20.7578 11.622 20.1839 11.9268 19.5381 12.4778L18.599 13.279L21.0027 16.1369ZM21.9983 17.3208L24.935 20.8125L23.5145 22.0244L16.1628 13.2831L18.6174 11.1889C19.7387 10.2323 20.7465 9.73534 21.6407 9.69812C22.5349 9.6609 23.3407 10.0688 24.0582 10.9218C24.9733 12.01 25.0627 13.2653 24.3263 14.6877L30.0344 16.462L28.4178 17.8412L23.401 16.1241L21.9983 17.3208Z" fill="#1B485A"/>
<path d="M34.8778 14.8719C33.647 15.4111 32.5284 15.4747 31.5222 15.0627C30.5186 14.6438 29.7442 13.8032 29.199 12.5409C28.6393 11.2452 28.5214 10.0856 28.8453 9.06236C29.1692 8.03906 29.8941 7.28077 31.0199 6.78749C32.0647 6.32973 33.0273 6.28609 33.9078 6.65655C34.7884 7.02702 35.4692 7.76928 35.9504 8.88334L36.3439 9.7942L31.0701 12.1049C31.4264 12.8643 31.89 13.3662 32.4609 13.6108C33.0297 13.8506 33.6695 13.8148 34.3803 13.5034C34.8478 13.2985 35.2633 13.0653 35.6269 12.8036C35.9931 12.5351 36.3632 12.1967 36.7371 11.7883L37.3288 13.1582C37.0032 13.534 36.6481 13.8545 36.2634 14.1197C35.8787 14.385 35.4168 14.6357 34.8778 14.8719ZM31.5714 8.06411C31.0371 8.29822 30.681 8.65607 30.5033 9.13769C30.3303 9.61721 30.3532 10.1957 30.5721 10.8731L34.1642 9.2992C33.8718 8.64833 33.5006 8.22244 33.0507 8.02151C32.5988 7.81581 32.1057 7.83001 31.5714 8.06411Z" fill="#1B485A"/>
<path d="M45.4398 12.4325L44.924 11.2859L44.862 11.2939C44.515 11.869 44.1445 12.2791 43.7504 12.5242C43.3556 12.7642 42.8302 12.9264 42.1742 13.011C41.3322 13.1196 40.6447 12.9772 40.1117 12.5838C39.5838 12.1897 39.267 11.5767 39.1613 10.7449C39.049 9.86135 39.2923 9.15255 39.8912 8.61846C40.4901 8.08437 41.4585 7.71008 42.7963 7.49559L44.2703 7.25829L44.2122 6.80103C44.1426 6.25335 43.9616 5.86182 43.6691 5.62645C43.3812 5.38525 42.9686 5.29928 42.4314 5.36854C41.9924 5.42515 41.5796 5.54401 41.1931 5.72513C40.8066 5.90624 40.4385 6.10861 40.0889 6.33223L39.3346 5.10613C39.7686 4.80335 40.2541 4.55433 40.7911 4.35907C41.3274 4.15864 41.8409 4.02679 42.3316 3.96352C43.4215 3.823 44.2731 3.95478 44.8862 4.35886C45.5045 4.76228 45.8783 5.47291 46.0077 6.49076L46.7415 12.2646L45.4398 12.4325ZM42.5703 11.5421C43.2315 11.4568 43.7376 11.2051 44.0888 10.787C44.4444 10.3631 44.5799 9.81783 44.4951 9.15132L44.4006 8.40731L43.3062 8.59566C42.4527 8.73722 41.846 8.96247 41.4863 9.27142C41.131 9.57454 40.9869 9.98961 41.0539 10.5166C41.1025 10.899 41.2539 11.1814 41.5081 11.3639C41.7617 11.5413 42.1157 11.6007 42.5703 11.5421Z" fill="#1B485A"/>
<path d="M52.1725 13.2107C51.1076 13.0421 50.3369 12.5246 49.8603 11.6582C49.3837 10.7917 49.254 9.66119 49.4711 8.26652C49.6889 6.86671 50.1593 5.8259 50.8821 5.14408C51.6109 4.45793 52.5103 4.19955 53.5803 4.36894C54.7018 4.54647 55.4912 5.09594 55.9487 6.01734L56.0413 6.032C56.0492 5.40574 56.0807 4.91506 56.136 4.55996L56.6202 1.44898L58.4413 1.73727L56.5717 13.7489L55.1519 13.5241L55.0097 12.3547L54.9249 12.3413C54.2114 13.0984 53.2939 13.3882 52.1725 13.2107ZM52.8869 11.8209C53.6328 11.939 54.208 11.8165 54.6124 11.4534C55.0176 11.0851 55.2986 10.4309 55.4555 9.49075L55.4952 9.23601C55.6626 8.16042 55.6066 7.36849 55.3273 6.86023C55.048 6.35198 54.5354 6.0388 53.7894 5.92072C53.1516 5.81974 52.6198 6.00186 52.1943 6.46707C51.7695 6.92715 51.4826 7.6358 51.3336 8.59302C51.1862 9.53995 51.2409 10.2895 51.4975 10.8416C51.755 11.3886 52.2181 11.715 52.8869 11.8209Z" fill="#1B485A"/>
<path d="M67.7054 20.4361L71.0574 10.8878L71.0087 10.8486C70.1968 12.0136 69.4054 13.0814 68.6345 14.0522L65.1804 18.4024L63.8601 17.3389L70.9627 8.39391L73.0131 10.0454L69.8333 19.1507L69.8699 19.1801L78.0631 14.113L80.1195 15.7694L73.017 24.7144L71.6176 23.5872L75.13 19.1637C75.483 18.7191 75.9531 18.1481 76.5401 17.4506C77.1313 16.7564 77.4948 16.3404 77.6309 16.2025L77.5822 16.1633L68.9892 21.4702L67.7054 20.4361Z" fill="#1B485A"/>
<path d="M80.5683 30.0599C79.3794 30.8207 78.2585 31.1083 77.2054 30.9227C76.1523 30.7372 75.2812 30.0982 74.592 29.0057C74.1612 28.3229 73.9341 27.6212 73.9104 26.9005C73.8868 26.1798 74.0734 25.4946 74.4703 24.8449C74.8671 24.1952 75.445 23.6275 76.2039 23.1418C77.384 22.3866 78.497 22.101 79.5429 22.285C80.5889 22.4689 81.4606 23.1138 82.1581 24.2194C82.8251 25.2766 83.0131 26.3311 82.7222 27.383C82.4356 28.432 81.7177 29.3243 80.5683 30.0599ZM77.2127 24.7408C75.5325 25.8161 75.0856 26.977 75.8721 28.2236C76.6502 29.457 77.8793 29.5361 79.5595 28.4609C81.2222 27.3968 81.6617 26.2437 80.878 25.0015C80.4667 24.3496 79.953 24.0136 79.3369 23.9936C78.7236 23.978 78.0155 24.2271 77.2127 24.7408Z" fill="#1B485A"/>
<path d="M86.8939 35.733C87.0064 36.0853 87.0744 36.3835 87.0977 36.6278L85.4155 36.9842C85.3957 36.7168 85.343 36.4492 85.2574 36.1813C85.0339 35.4817 84.6245 34.9875 84.0292 34.6987C83.4354 34.4148 82.7744 34.3909 82.0461 34.6269L77.7504 36.0191L77.1917 34.2702L85.4114 31.6063L85.8489 32.9756L84.4734 33.676L84.5019 33.7653C85.0796 33.8792 85.5818 34.1079 86.0087 34.4513C86.4371 34.7997 86.7322 35.227 86.8939 35.733Z" fill="#1B485A"/>
<path d="M78.9984 45.0977C78.9229 43.756 79.2538 42.6834 79.9911 41.8796C80.7338 41.0808 81.7916 40.6422 83.1643 40.5639C84.5735 40.4835 85.7008 40.7713 86.5463 41.4273C87.3918 42.0833 87.849 43.0249 87.9181 44.2521C87.9822 45.391 87.687 46.3103 87.0325 47.0102C86.3781 47.7101 85.4451 48.0946 84.2336 48.1637L83.243 48.2203L82.9196 42.4716C82.0838 42.5453 81.4518 42.8083 81.0234 43.2606C80.6002 43.7125 80.4104 44.3259 80.454 45.1007C80.4826 45.6103 80.5561 46.0808 80.6742 46.5123C80.7979 46.9487 80.9857 47.4127 81.2377 47.9043L79.7479 47.9893C79.5096 47.5543 79.3333 47.1105 79.2192 46.6579C79.105 46.2054 79.0314 45.6853 78.9984 45.0977ZM86.5297 44.3314C86.497 43.749 86.286 43.2915 85.8969 42.9589C85.5081 42.6316 84.9583 42.4543 84.2473 42.4271L84.4676 46.3428C85.1794 46.2917 85.7079 46.0894 86.0532 45.7358C86.4036 45.3819 86.5625 44.9138 86.5297 44.3314Z" fill="#1B485A"/>
<path d="M74.3749 63.2263L77.7288 63.4999L79.5169 59.5155L77.0875 57.1821L77.8937 55.3859L86.5819 64.0367L85.7502 65.8898L73.5624 65.0367L74.3749 63.2263ZM79.395 63.7177L82.6632 64.0295C82.8848 64.0446 83.2282 64.0807 83.6934 64.138C84.1565 64.2001 84.4935 64.2505 84.7045 64.2893C84.179 63.8956 83.6257 63.4176 83.0445 62.8554L80.7577 60.6813L79.395 63.7177Z" fill="#1B485A"/>
<path d="M76.3846 74.5051C75.6791 75.3203 74.8367 75.6966 73.8577 75.634C72.8752 75.5754 71.8537 75.0804 70.793 74.1492C69.7284 73.2145 69.0981 72.2556 68.902 71.2725C68.7098 70.2929 68.9682 69.3935 69.6772 68.5744C70.393 67.7474 71.244 67.3649 72.2304 67.427L72.3122 67.3325L71.763 66.4032L72.6629 65.3636L81.7978 73.384L80.5963 74.7722L78.4241 72.865C78.2636 72.7241 78.0317 72.5066 77.7283 72.2125C77.4249 71.9184 77.2336 71.7296 77.1543 71.6462L77.1032 71.7052C77.3672 72.7133 77.1277 73.6466 76.3846 74.5051ZM75.5693 73.1551C76.0533 72.5959 76.2383 72.0479 76.1243 71.5111C76.0108 70.9818 75.5739 70.3764 74.8136 69.695L74.7196 69.6125C73.929 68.9184 73.2466 68.541 72.6723 68.4803C72.1019 68.4231 71.5696 68.6799 71.0753 69.251C70.6493 69.7432 70.5209 70.2855 70.6902 70.8777C70.8561 71.4739 71.305 72.0933 72.0369 72.7359C73.5124 74.0314 74.6899 74.1711 75.5693 73.1551Z" fill="#1B485A"/>
<path d="M62.0305 79.7724C61.2717 78.5823 60.9835 77.4568 61.1659 76.3962C61.3482 75.3355 61.9817 74.4544 63.0663 73.753C63.7442 73.3146 64.4414 73.0808 65.1578 73.0517C65.8742 73.0225 66.5558 73.2051 67.2025 73.5994C67.8491 73.9937 68.4147 74.5708 68.899 75.3306C69.6522 76.5119 69.9384 77.6294 69.7576 78.6828C69.5769 79.7363 68.9376 80.618 67.8399 81.3279C66.7902 82.0067 65.7423 82.2037 64.696 81.919C63.6526 81.6386 62.7641 80.9231 62.0305 79.7724ZM67.3115 76.3572C66.2391 74.6752 65.0841 74.2344 63.8464 75.0348C62.6218 75.8267 62.5457 77.0637 63.6181 78.7458C64.6792 80.4102 65.8264 80.8437 67.0598 80.0461C67.707 79.6275 68.04 79.1083 68.0586 78.4884C68.0729 77.8713 67.8238 77.1609 67.3115 76.3572Z" fill="#1B485A"/>
<path d="M52.2317 78.1364L52.7887 79.1549L52.8788 79.1289C53.0146 78.6725 53.2789 78.2686 53.6719 77.917C54.0598 77.5669 54.544 77.3083 55.1246 77.1412C56.1307 76.8516 56.9525 76.8861 57.5902 77.2445C58.2279 77.603 58.691 78.2907 58.9796 79.3079L60.5213 84.7418L58.742 85.254L57.2877 80.1282C57.1071 79.4918 56.8412 79.0508 56.49 78.805C56.1401 78.5642 55.6874 78.5238 55.1319 78.6837C54.3911 78.8969 53.9106 79.2737 53.6903 79.814C53.4665 80.3608 53.5024 81.1553 53.7981 82.1975L54.9731 86.3387L53.2013 86.8486L50.8428 78.5361L52.2317 78.1364Z" fill="#1B485A"/>
<path d="M45.0164 79.8219C44.5686 79.8283 44.1217 79.9051 43.6758 80.0521L43.6563 78.6694C43.8582 78.578 44.1201 78.5013 44.4422 78.4394C44.759 78.3723 45.0893 78.3364 45.433 78.3315C47.1724 78.3066 48.055 79.2107 48.0808 81.0439L48.1465 85.6997L49.326 85.6828L49.3375 86.4952L48.0814 87.1851L47.4823 89.022L46.3496 89.0382L46.3225 87.1165L43.8618 87.1517L43.8422 85.7612L46.3029 85.726L46.2377 81.1015C46.2315 80.6588 46.1175 80.3323 45.8958 80.1219C45.6689 79.9168 45.3758 79.8168 45.0164 79.8219Z" fill="#1B485A"/>
<path d="M21.9475 82.8433L25.1307 76.1733C25.4942 75.4118 25.9768 74.8238 26.5786 74.4092C27.1735 73.9971 27.8544 73.7857 28.6213 73.775C29.3812 73.7668 30.1901 73.9703 31.048 74.3857C32.3231 75.003 33.153 75.8214 33.5378 76.841C33.9227 77.8605 33.8324 78.9626 33.2671 80.1471L30.0973 86.7888L28.4097 85.9718L31.5223 79.4499C31.9283 78.5991 32.0309 77.8763 31.8301 77.2814C31.6292 76.6866 31.1209 76.1917 30.3052 75.7968C28.7208 75.0297 27.5303 75.4805 26.7339 77.1491L23.6281 83.6569L21.9475 82.8433Z" fill="#1B485A"/>
<path d="M19.9573 69.0245C20.5185 68.3944 21.1777 68.1161 21.9351 68.1897C22.6891 68.2672 23.4912 68.6899 24.3415 69.458C25.1956 70.2296 25.7656 70.9796 26.0515 71.708L24.9968 72.8924C24.5548 71.8615 24.0092 71.0528 23.3599 70.4663C22.5212 69.7087 21.875 69.5847 21.4212 70.0942C21.2758 70.2576 21.2009 70.4356 21.1967 70.6283C21.1925 70.821 21.2447 71.0717 21.3533 71.3804C21.462 71.6891 21.6399 72.0885 21.887 72.5784C22.3689 73.5331 22.6131 74.2731 22.6196 74.7983C22.6223 75.32 22.4192 75.8104 22.0105 76.2694C21.5187 76.8217 20.9173 77.0506 20.2066 76.956C19.4885 76.8618 18.7487 76.4708 17.9873 75.783C17.2337 75.1022 16.6574 74.3044 16.2585 73.3896L17.6188 72.7549C18.0543 73.6677 18.5078 74.3371 18.9793 74.763C19.6982 75.4124 20.2412 75.5309 20.6084 75.1186C20.7885 74.9163 20.8481 74.6614 20.7873 74.3538C20.7226 74.0427 20.4844 73.4801 20.0726 72.666C19.7267 71.9815 19.5101 71.4455 19.4229 71.0579C19.3357 70.6703 19.3345 70.3113 19.4195 69.981C19.501 69.6545 19.6802 69.3357 19.9573 69.0245Z" fill="#1B485A"/>
<path d="M45.7071 44.2929C46.0976 44.6834 46.0976 45.3166 45.7071 45.7071L39.3431 52.0711C38.9526 52.4616 38.3195 52.4616 37.9289 52.0711C37.5384 51.6805 37.5384 51.0474 37.9289 50.6569L43.5858 45L37.9289 39.3431C37.5384 38.9526 37.5384 38.3195 37.9289 37.9289C38.3195 37.5384 38.9526 37.5384 39.3431 37.9289L45.7071 44.2929ZM0 44L45 44V46L0 46L0 44Z" fill="#1B485A"/>
</g>
<defs>
<clipPath id="clip0_70_54">
<rect width="90" height="90" fill="white" transform="matrix(0 1 -1 0 90 0)"/>
</clipPath>
</defs>
</svg>
