<svg width="28" height="28" viewBox="0 0 28 28" fill="none" xmlns="http://www.w3.org/2000/svg">
<g id="user-3-line (1)" clip-path="url(#clip0_49_110)">
<g id="Group">
<path id="Vector" d="M23.3337 25.6667H21.0003V23.3334C21.0003 22.4052 20.6316 21.5149 19.9752 20.8585C19.3188 20.2022 18.4286 19.8334 17.5003 19.8334H10.5003C9.57207 19.8334 8.68183 20.2022 8.02545 20.8585C7.36907 21.5149 7.00033 22.4052 7.00033 23.3334V25.6667H4.66699V23.3334C4.66699 21.7863 5.28157 20.3026 6.37554 19.2086C7.4695 18.1147 8.95323 17.5001 10.5003 17.5001H17.5003C19.0474 17.5001 20.5312 18.1147 21.6251 19.2086C22.7191 20.3026 23.3337 21.7863 23.3337 23.3334V25.6667ZM14.0003 15.1667C13.0811 15.1667 12.1708 14.9857 11.3215 14.6339C10.4723 14.2821 9.70059 13.7665 9.05058 13.1165C8.40057 12.4665 7.88495 11.6948 7.53317 10.8455C7.18139 9.99625 7.00033 9.086 7.00033 8.16675C7.00033 7.2475 7.18139 6.33724 7.53317 5.48796C7.88495 4.63868 8.40057 3.86701 9.05058 3.217C9.70059 2.56699 10.4723 2.05137 11.3215 1.69959C12.1708 1.34781 13.0811 1.16675 14.0003 1.16675C15.8568 1.16675 17.6373 1.90425 18.9501 3.217C20.2628 4.52976 21.0003 6.31023 21.0003 8.16675C21.0003 10.0233 20.2628 11.8037 18.9501 13.1165C17.6373 14.4293 15.8568 15.1667 14.0003 15.1667ZM14.0003 12.8334C15.238 12.8334 16.425 12.3418 17.3002 11.4666C18.1753 10.5914 18.667 9.40443 18.667 8.16675C18.667 6.92907 18.1753 5.74209 17.3002 4.86692C16.425 3.99175 15.238 3.50008 14.0003 3.50008C12.7626 3.50008 11.5757 3.99175 10.7005 4.86692C9.82532 5.74209 9.33366 6.92907 9.33366 8.16675C9.33366 9.40443 9.82532 10.5914 10.7005 11.4666C11.5757 12.3418 12.7626 12.8334 14.0003 12.8334Z" fill="#1B485A"/>
</g>
</g>
<defs>
<clipPath id="clip0_49_110">
<rect width="28" height="28" fill="white"/>
</clipPath>
</defs>
</svg>
